<?xml version="1.0" encoding="UTF-8" standalone="no"?>
<!-- Created with Inkscape (http://www.inkscape.org/) -->

<svg
   xmlns:dc="http://purl.org/dc/elements/1.1/"
   xmlns:cc="http://creativecommons.org/ns#"
   xmlns:rdf="http://www.w3.org/1999/02/22-rdf-syntax-ns#"
   xmlns:svg="http://www.w3.org/2000/svg"
   xmlns="http://www.w3.org/2000/svg"
   xmlns:sodipodi="http://sodipodi.sourceforge.net/DTD/sodipodi-0.dtd"
   xmlns:inkscape="http://www.inkscape.org/namespaces/inkscape"
   width="349.59894"
   height="250.18195"
   version="1.1"
   viewBox="0 0 349.59895 250.18194"
   id="svg13"
   sodipodi:docname="feast_ico.svg"
   inkscape:version="0.92.3 (2405546, 2018-03-11)">
  <sodipodi:namedview
     pagecolor="#ffffff"
     bordercolor="#666666"
     borderopacity="1"
     objecttolerance="10"
     gridtolerance="10"
     guidetolerance="10"
     inkscape:pageopacity="0"
     inkscape:pageshadow="2"
     inkscape:window-width="1865"
     inkscape:window-height="1025"
     id="namedview15"
     showgrid="false"
     inkscape:zoom="2.4857804"
     inkscape:cx="153.96616"
     inkscape:cy="118.94794"
     inkscape:window-x="55"
     inkscape:window-y="27"
     inkscape:window-maximized="1"
     inkscape:current-layer="svg13"
     fit-margin-top="0"
     fit-margin-left="0"
     fit-margin-right="0"
     fit-margin-bottom="0" />
  <metadata
     id="metadata2">
    <rdf:RDF>
      <cc:Work
         rdf:about="">
        <dc:format>image/svg+xml</dc:format>
        <dc:type
           rdf:resource="http://purl.org/dc/dcmitype/StillImage" />
        <dc:title />
      </cc:Work>
    </rdf:RDF>
  </metadata>
  <defs
     id="defs7">
    <clipPath
       id="clipPath819">
      <circle
         cx="250.08"
         cy="267.73999"
         r="189.78999"
         id="circle4"
         style="fill:none;stroke:#ffffff;stroke-width:2.49040008" />
    </clipPath>
  </defs>
  <path
     style="color:#000000;font-style:normal;font-variant:normal;font-weight:normal;font-stretch:normal;font-size:medium;line-height:normal;font-family:sans-serif;font-variant-ligatures:normal;font-variant-position:normal;font-variant-caps:normal;font-variant-numeric:normal;font-variant-alternates:normal;font-feature-settings:normal;text-indent:0;text-align:start;text-decoration:none;text-decoration-line:none;text-decoration-style:solid;text-decoration-color:#000000;letter-spacing:normal;word-spacing:normal;text-transform:none;writing-mode:lr-tb;direction:ltr;text-orientation:mixed;dominant-baseline:auto;baseline-shift:baseline;text-anchor:start;white-space:normal;shape-padding:0;clip-rule:nonzero;display:inline;overflow:visible;visibility:visible;opacity:1;isolation:auto;mix-blend-mode:normal;color-interpolation:sRGB;color-interpolation-filters:linearRGB;solid-color:#000000;solid-opacity:1;vector-effect:none;fill-opacity:1;fill-rule:nonzero;stroke:none;stroke-width:1;stroke-linecap:butt;stroke-linejoin:miter;stroke-miterlimit:4;stroke-dasharray:none;stroke-dashoffset:0;stroke-opacity:1;color-rendering:auto;image-rendering:auto;shape-rendering:auto;text-rendering:auto;enable-background:accumulate;fill:#050000"
     d="m 209.9668,-0.5 c -2.97777,0 -5.04468,0.081836 -6.39258,0.28320312 -0.67395,0.10068355 -1.16559,0.22307643 -1.54688,0.4296875 -0.19064,0.10330554 -0.36194,0.23249353 -0.48242,0.42578126 -0.12047,0.19328772 -0.16187,0.45107972 -0.11719,0.66601562 0.0391,0.1880706 0.10644,0.3268593 0.20704,0.5390625 0.10059,0.2122032 0.23445,0.4708523 0.40039,0.7773438 0.33187,0.6129828 0.79141,1.4112023 1.3457,2.34375 1.10857,1.8650952 2.5993,4.2669961 4.20898,6.7597652 15.09598,23.37771 21.91407,44.950626 21.91407,69.275391 0,18.362632 -3.86225,35.04561 -11.72266,50.6543 -0.98277,1.9515 -1.87526,3.84023 -2.52539,5.31836 -0.32506,0.73906 -0.58924,1.3753 -0.77539,1.87109 -0.0931,0.24789 -0.16571,0.45924 -0.21875,0.63867 -0.053,0.17943 -0.0937,0.30329 -0.0937,0.49219 0,0.30723 0.15743,0.57235 0.34961,0.75781 0.19217,0.18546 0.42769,0.31997 0.69531,0.42969 0.53525,0.21944 1.21167,0.33789 1.95508,0.33789 0.74526,0 1.42418,-0.12419 1.96094,-0.35156 0.26837,-0.11369 0.50413,-0.25078 0.69531,-0.44141 0.19118,-0.19063 0.34375,-0.45905 0.34375,-0.76562 0,-0.16683 0.0284,-0.13469 0,-0.1211 -0.0284,0.0136 0.0294,-0.0234 0.20312,0.084 0.36889,0.22798 0.80736,0.14176 1.16407,-0.0371 0.35671,-0.17888 0.71092,-0.4627 1.10351,-0.84375 0.78518,-0.76211 1.70662,-1.91931 2.73047,-3.39453 2.0477,-2.95045 4.48968,-7.17108 6.80469,-11.91016 5.18311,-10.61039 8.66346,-23.18369 10.09179,-36.427734 1.12542,-10.435233 1.02951,-12.46904 -1.53906,-31.705078 -0.84124,-6.300133 -4.4811,-18.332692 -8.03515,-26.63086 C 230.23106,23.210543 227.8602,18.165191 225.95898,14.542969 225.00838,12.731858 224.17681,11.278603 223.5,10.259766 223.1616,9.7503471 222.86346,9.3504542 222.5918,9.0566406 222.32014,8.762827 222.11739,8.5 221.65234,8.5 c -0.16727,0 -0.26207,-0.056165 -0.28906,-0.082031 -0.027,-0.025867 -0.022,0.00797 -0.01,-0.037109 0.0814,-0.3008921 0.0296,-0.4962799 -0.0215,-0.8007813 -0.0511,-0.3045014 -0.13649,-0.671815 -0.24805,-1.0898437 -0.22311,-0.8360575 -0.55383,-1.8703161 -0.94531,-2.9160156 L 218.61328,-0.5 Z m 0,1 h 7.95312 l 1.28125,3.4257812 c 0.38066,1.0168005 0.70576,2.0270731 0.91797,2.8222657 0.1061,0.3975962 0.18364,0.742392 0.22656,0.9980469 0.0429,0.2556548 0.0174,0.4676889 0.043,0.3730468 -0.0994,0.3674222 0.0245,0.7754759 0.28125,1.0214844 0.25671,0.2460085 0.60762,0.359375 0.98242,0.359375 -0.18809,0 -0.004,0.00855 0.20508,0.234375 0.2088,0.2258268 0.48721,0.594319 0.8086,1.078125 0.64277,0.967611 1.46497,2.401981 2.40625,4.195312 1.88254,3.586663 4.24698,8.616192 6.69921,14.341797 3.51309,8.202533 7.15006,20.281753 7.9629,26.369141 2.56783,19.230522 2.66047,21.048556 1.5371,31.464844 -1.41698,13.138846 -4.87228,25.608666 -9.99609,36.097656 -2.29603,4.70023 -4.72148,8.8883 -6.72656,11.77734 -1.00255,1.44453 -1.90446,2.56569 -2.60547,3.2461 -0.3505,0.3402 -0.65618,0.56705 -0.85742,0.66797 -0.20125,0.10091 -0.21891,0.0638 -0.18946,0.082 -0.35769,-0.22107 -0.78149,-0.31776 -1.16015,-0.13672 -0.37866,0.18104 -0.56836,0.6078 -0.56836,1.02344 0,-0.0153 0.0119,-0.006 -0.0508,0.0566 -0.0627,0.0625 -0.19416,0.1522 -0.37891,0.23047 -0.3695,0.15652 -0.94058,0.27148 -1.57031,0.27148 -0.63159,0 -1.20517,-0.11157 -1.57617,-0.26367 -0.1855,-0.0761 -0.31718,-0.16309 -0.37891,-0.22266 -0.0617,-0.0596 -0.0449,-0.0644 -0.0449,-0.0391 0,0.048 0.0105,-0.0661 0.0527,-0.20899 0.0422,-0.14288 0.10758,-0.33663 0.19532,-0.57031 0.17547,-0.46735 0.43554,-1.09205 0.75586,-1.82031 0.64062,-1.45652 1.52828,-3.33416 2.5039,-5.27148 7.93003,-15.74694 11.82813,-32.600512 11.82813,-51.10352 0,-24.512055 -6.90042,-46.320129 -22.07422,-69.818359 -1.60361,-2.4833609 -3.08954,-4.8779863 -4.18946,-6.728516 -0.54995,-0.9252649 -1.00296,-1.7152184 -1.32421,-2.3085938 -0.16063,-0.2966876 -0.28875,-0.5443974 -0.37696,-0.7304687 -0.0755,-0.1592293 -0.10447,-0.2467162 -0.11328,-0.2675781 0.0106,-0.010406 0.0132,-0.019521 0.0781,-0.054687 0.1836,-0.0994911 0.60011,-0.2259392 1.21875,-0.3183594 C 204.95993,0.5885971 207.00825,0.5 209.9668,0.5 Z m -13.79883,0.03125 c -1.80911,0 -2.94175,0.0482965 -3.63477,0.24023438 -0.17325,0.0479845 -0.32511,0.10335838 -0.47461,0.21289062 -0.14949,0.1095322 -0.31085,0.3358153 -0.30468,0.5820312 0.006,0.246216 0.12807,0.4109786 0.24218,0.5332032 0.0362,0.038754 0.0871,0.06688 0.12696,0.1015625 -0.48777,0.122092 -1.3367,0.2192479 -2.35547,0.2363281 -2.13892,0.03586 -4.91582,-0.2417582 -6.19727,-0.7480469 -0.35843,-0.1416144 -0.80881,-0.1977257 -1.41211,-0.2460937 -0.6033,-0.048368 -1.34091,-0.072929 -2.16992,-0.076172 -1.65801,-0.00649 -3.68101,0.070057 -5.67383,0.1992187 -1.99282,0.1291618 -3.95262,0.3116456 -5.48828,0.5253907 -0.76783,0.1068725 -1.4292,0.2211941 -1.94531,0.34375 -0.25806,0.061278 -0.48021,0.1241254 -0.66992,0.1953125 -0.18972,0.071187 -0.34664,0.1317931 -0.50977,0.2949218 -0.16085,0.1608552 -0.17362,0.3199374 -0.17969,0.4335938 -0.006,0.1136564 0.006,0.2114014 0.0254,0.3144531 0.0378,0.2061035 0.10825,0.4356534 0.20703,0.7128907 0.19755,0.5544744 0.51286,1.2845663 0.92578,2.1582031 0.82582,1.7472735 2.04093,4.0576281 3.45312,6.5253901 11.03497,19.283277 18.05797,37.07916 22.17383,56.167969 2.56931,11.916126 3.57964,36.866939 1.93555,47.451169 -0.67965,4.37539 -1.91629,10.17434 -3.13086,15.06055 -0.60729,2.44311 -1.20963,4.65953 -1.73242,6.35352 -0.2614,0.84699 -0.5033,1.56421 -0.71289,2.10742 -0.2096,0.5432 -0.41139,0.92936 -0.48438,1.02344 -0.1842,0.2374 -0.30779,0.55784 -0.23242,0.8789 0.0754,0.32107 0.31002,0.54111 0.5664,0.68945 0.51277,0.29669 1.22951,0.43048 2.21876,0.50586 0.71194,0.0542 1.30653,0.0765 1.86914,-0.0488 0.56261,-0.12532 1.07365,-0.41664 1.52539,-0.89258 0.90348,-0.95189 1.67563,-2.59299 3.04687,-5.61719 1.63221,-3.59975 4.05245,-9.7909 5.40234,-13.81641 11.33001,-33.786913 4.77688,-77.372398 -16.95117,-113.1406212 -1.96349,-3.2322571 -2.98809,-5.0329344 -3.24023,-5.8417969 -0.062,-0.1990057 -0.072,-0.3259474 -0.0684,-0.3730469 0.003,0.0036 0.24192,-0.078125 0.68359,-0.078125 0.47766,0 0.84246,0.3588187 0.84766,0.7558594 0.003,0.2123349 0.0542,0.362027 0.125,0.5761718 0.0708,0.2141449 0.17049,0.4676735 0.29492,0.765625 0.24886,0.5959032 0.60129,1.3627649 1.03516,2.2519532 0.86772,1.7783766 2.05719,4.0497466 3.36523,6.3945316 13.44086,24.093981 19.86887,47.731295 19.79492,72.753906 -0.0505,17.079693 -2.26319,28.751273 -8.38086,44.216793 -1.07968,2.72944 -2.00961,5.26234 -2.64062,7.15235 -0.31551,0.945 -0.5557,1.7269 -0.70508,2.30469 -0.0747,0.28889 -0.12683,0.52407 -0.1543,0.7207 -0.0137,0.0983 -0.0234,0.18593 -0.0195,0.28515 0.004,0.0992 -0.0237,0.23409 0.17383,0.43165 0.12236,0.12236 0.21067,0.14348 0.28906,0.16796 0.0784,0.0245 0.15044,0.0368 0.23047,0.0488 0.16006,0.024 0.34612,0.0373 0.57031,0.0449 0.4484,0.0152 1.04421,0.007 1.75586,-0.0234 1.42331,-0.0614 3.30879,-0.21066 5.32813,-0.42969 2.00455,-0.21743 3.92082,-0.39108 5.38672,-0.49609 0.73295,-0.0525 1.3537,-0.0868 1.8125,-0.10157 0.2294,-0.007 0.4194,-0.0106 0.55664,-0.008 0.13723,0.003 0.24445,0.0228 0.20117,0.0117 0.16794,0.0428 0.33912,0.0607 0.52734,0.0117 0.18823,-0.049 0.38929,-0.202 0.47657,-0.39649 0.17455,-0.38898 0.0241,-0.70917 -0.16407,-1.01367 0.0956,0.15467 0.032,0.10239 0.0449,-0.0176 0.0129,-0.11996 0.0503,-0.31313 0.11328,-0.55078 0.1259,-0.4753 0.35032,-1.13873 0.65039,-1.92383 0.60012,-1.57019 1.50558,-3.63447 2.56836,-5.79882 19.17828,-39.056471 15.44247,-81.171204 -10.67188,-120.660161 -1.5078,-2.2800274 -3.01288,-4.3539833 -4.23047,-5.8691402 -0.60879,-0.7575785 -1.14371,-1.3741556 -1.58398,-1.8164063 -0.22014,-0.2211254 -0.41468,-0.3993777 -0.59766,-0.5351563 -0.0929,-0.068914 -0.22625,-0.086487 -0.32617,-0.1367187 0.0831,-0.064572 0.14431,-0.1201291 0.26367,-0.1972656 0.15556,-0.1005304 0.28628,-0.1980902 0.40039,-0.3203125 0.11412,-0.1222224 0.23406,-0.2869897 0.24024,-0.5332032 0.006,-0.2462134 -0.15324,-0.4724957 -0.30274,-0.5820312 C 200.12785,0.87483946 199.97599,0.81946915 199.80273,0.77148438 199.10972,0.57954526 197.9771,0.53125 196.16797,0.53125 Z m 0,1 c 1.61516,0 2.53728,0.084061 3.04883,0.1855469 -0.14979,0.1056314 -0.30532,0.210588 -0.41602,0.3144531 -0.15863,0.1488351 -0.29256,0.2870731 -0.36719,0.5214844 -0.0373,0.1172056 -0.0514,0.2744145 0,0.4277344 0.0514,0.1533198 0.16417,0.2768711 0.27344,0.3476562 0.21853,0.1415702 0.41682,0.1533617 0.64063,0.15625 -0.15355,-0.00188 -0.0585,-0.014639 0.0586,0.072266 0.11711,0.086904 0.28564,0.2378698 0.48437,0.4375 0.39748,0.3992605 0.91856,0.9977198 1.51368,1.7382813 1.19024,1.481123 2.68289,3.5354965 4.17578,5.7929691 25.95845,39.253215 29.63991,80.912367 10.60937,119.667969 -1.07447,2.18816 -1.99183,4.27215 -2.60742,5.88281 -0.30779,0.80533 -0.54011,1.4911 -0.68164,2.02539 -0.0708,0.26715 -0.11869,0.49559 -0.14062,0.69922 -0.0178,0.16508 0.003,0.3326 0.0801,0.52734 -0.0489,-0.002 -0.0934,-0.0144 -0.15234,-0.0156 -0.16541,-0.003 -0.36907,7e-5 -0.60938,0.008 -0.48061,0.0155 -1.1103,0.0524 -1.85156,0.10547 -1.48251,0.1062 -3.40634,0.27943 -5.42187,0.49805 -2.00073,0.21701 -3.87139,0.3638 -5.26367,0.42383 -0.69615,0.03 -1.27431,0.0391 -1.67774,0.0254 -0.11035,-0.004 -0.16857,-0.0129 -0.25,-0.0195 0.0237,-0.12375 0.0446,-0.23974 0.0937,-0.42969 0.13886,-0.5371 0.37429,-1.30796 0.68555,-2.24024 0.62251,-1.86455 1.54701,-4.38432 2.62109,-7.09961 6.15082,-15.54934 8.40044,-27.41683 8.45117,-44.582027 0.0745,-25.195889 -6.41145,-49.027415 -19.92187,-73.246094 -1.29992,-2.330215 -2.48304,-4.5897044 -3.33985,-6.3457028 -0.4284,-0.8779991 -0.77526,-1.6310593 -1.01171,-2.1972656 -0.11823,-0.2831031 -0.20949,-0.5196624 -0.26758,-0.6953125 -0.0581,-0.1756501 -0.0747,-0.3138974 -0.0742,-0.2734375 -0.0106,-0.8097137 -0.64283,-1.3657893 -1.4043,-1.5703125 1.61848,0.5746827 4.19901,0.7995639 6.33985,0.7636719 1.11465,-0.018688 2.07199,-0.1015173 2.72656,-0.2851562 0.32728,-0.09182 0.62784,-0.1442926 0.83203,-0.5351563 0.10209,-0.1954319 0.0802,-0.4899021 -0.0215,-0.6640625 -0.0639,-0.1093557 -0.15592,-0.1655017 -0.24024,-0.234375 0.50367,-0.1033681 1.4521,-0.1875 3.08594,-0.1875 z m -16.18359,0.8359375 c 0.81234,0.00318 1.53,0.027069 2.09374,0.072266 0.34946,0.028017 0.49003,0.072518 0.69727,0.1132813 -0.39985,0.00416 -0.78239,-0.013409 -1.10742,0.2519531 -0.1958,0.1598569 -0.32246,0.4232608 -0.3457,0.6738281 -0.0232,0.2505674 0.0237,0.4946163 0.10937,0.7695313 0.34279,1.09966 1.37299,2.8247071 3.33984,6.0625001 21.58705,35.536109 28.06981,78.874356 16.85938,112.304683 -1.33346,3.9765 -3.75774,10.17741 -5.36524,13.72266 -1.36711,3.01511 -2.1734,4.61506 -2.86132,5.33984 -0.34397,0.3624 -0.63303,0.51938 -1.01953,0.60547 -0.38651,0.0861 -0.8902,0.0814 -1.57422,0.0293 -0.91972,-0.0701 -1.55712,-0.23854 -1.79297,-0.375 -0.11793,-0.0682 -0.10594,-0.0964 -0.0957,-0.0527 0.0102,0.0436 -0.0218,0.0564 0.0508,-0.0371 0.22881,-0.2949 0.40414,-0.69989 0.62695,-1.27735 0.22281,-0.57746 0.46866,-1.31088 0.73437,-2.17187 0.53144,-1.72198 1.13759,-3.95234 1.74805,-6.40821 1.22092,-4.91172 2.4592,-10.72196 3.14649,-15.14648 1.6895,-10.87658 0.67451,-35.675052 -1.94336,-47.816406 C 189.14686,49.834493 182.07587,31.928982 171,12.574219 c -1.40134,-2.448797 -2.60667,-4.7446325 -3.41602,-6.4570315 -0.40467,-0.8561995 -0.71124,-1.5684278 -0.88867,-2.0664063 -0.0763,-0.2141389 -0.11646,-0.3642449 -0.14258,-0.4804687 0.008,-0.00308 0.002,-8.94e-4 0.01,-0.00391 0.12825,-0.048124 0.31685,-0.1031178 0.54883,-0.1582031 0.46395,-0.1101706 1.10269,-0.2219385 1.85156,-0.3261719 1.49774,-0.2084667 3.44204,-0.3915905 5.41602,-0.5195312 1.97398,-0.1279407 3.98078,-0.2016689 5.60547,-0.1953125 z m -31.7461,1.6972656 c -0.63772,0.026767 -1.04097,0.048238 -1.39258,0.1875 -0.0879,0.034816 -0.18515,0.073442 -0.29492,0.2011719 -0.10977,0.1277295 -0.1678,0.4242281 -0.0918,0.5976562 0.152,0.3468564 0.33002,0.3483835 0.51368,0.4257813 0.053,0.022316 0.0676,0.031575 0.11718,0.052734 -0.51897,0.040584 -1.03306,0.067151 -1.37695,0.4453125 -0.21047,0.2314486 -0.32176,0.5454422 -0.3457,0.8769531 -0.0239,0.3315109 0.0245,0.6948039 0.1289,1.1269531 0.41775,1.7285968 1.76746,4.6453204 4.33985,10.0410154 8.95133,18.775801 14.66978,36.349392 18.57226,57.072266 2.68724,14.269725 2.99066,47.544323 0.56446,60.042973 -0.41471,2.13633 -0.73213,4.13569 -0.91211,5.64843 -0.09,0.75638 -0.14716,1.39097 -0.16211,1.8711 -0.007,0.24006 -0.006,0.43912 0.0117,0.61328 0.0173,0.17415 -0.0313,0.31637 0.21875,0.5664 0.27983,0.27983 0.53362,0.29639 0.89257,0.36719 0.35895,0.0708 0.80586,0.12459 1.33204,0.16602 1.05235,0.0829 2.41664,0.11609 3.90039,0.10351 2.9675,-0.0252 6.40328,-0.23253 8.74218,-0.61914 0.92088,-0.15221 1.64364,-0.27698 2.27735,-0.52148 0.63371,-0.24451 1.16899,-0.62934 1.60937,-1.2207 0.88077,-1.18274 1.47479,-3.1071 2.64453,-6.83985 3.75316,-11.97657 5.06853,-21.60849 5.02344,-36.771483 -0.064,-21.519654 -3.90907,-39.724041 -12.93359,-61.279297 -2.34562,-5.602553 -5.95425,-12.940192 -9.26953,-19.115234 -1.65764,-3.087521 -3.24117,-5.882379 -4.5586,-8.027344 -0.65871,-1.0724825 -1.25007,-1.9826506 -1.75586,-2.6894532 -0.50578,-0.7068027 -0.90303,-1.2012056 -1.28125,-1.5 C 164.40713,5.6143051 163.98754,5.5111486 163.35547,5.3574219 162.7234,5.2036951 161.91343,5.054551 160.97266,4.9121094 159.09112,4.6272261 156.68626,4.3745 154.19727,4.2226562 151.56057,4.061804 149.51372,4.0109198 148.23828,4.0644531 Z m -5.78711,0.2773438 c -1.45872,-0.1840308 -3.94228,-0.1362918 -8.30078,0.021484 -5.27827,0.1910709 -8.55558,0.4239437 -10.20898,0.7988282 -0.41335,0.093721 -0.72499,0.1898615 -0.98438,0.3417968 -0.1297,0.075968 -0.25353,0.167863 -0.35156,0.3203126 -0.098,0.1524495 -0.14251,0.3832837 -0.0937,0.5683593 0.0975,0.3701514 0.34858,0.5208784 0.62305,0.6835938 0.27446,0.1627153 0.62183,0.3149948 1.05859,0.4765625 0.0371,0.013719 0.22968,0.1369767 0.45703,0.3710937 0.22735,0.234117 0.50478,0.5705309 0.81641,0.9941407 0.62324,0.8472194 1.3843,2.0399802 2.23632,3.4902342 1.70406,2.900507 3.77328,6.835404 5.9004,11.179688 4.25423,8.688566 8.74599,19.030688 11.05664,26.068359 6.52149,19.862945 10.50781,44.466582 10.50781,64.84375 0,6.16729 -0.43082,13.54953 -1.0332,19.55469 -0.3012,3.00258 -0.64542,5.66295 -0.99805,7.64648 -0.17632,0.99177 -0.35548,1.81542 -0.52734,2.41797 -0.0103,0.0361 -0.0148,0.026 -0.0254,0.0606 0.003,-0.81902 0.0707,-1.93673 0.29297,-3.62891 1.54684,-11.77336 0.8832,-50.125454 -1.0625,-60.146483 -4.51278,-23.242355 -12.11486,-45.497455 -21.33007,-62.414063 -2.49794,-4.585524 -4.43477,-7.666337 -6.17969,-9.6367184 -1.74493,-1.9703814 -3.36427,-2.850635 -5.08008,-2.8378906 -0.39525,0.00294 -0.70923,0.017707 -0.96875,0.056641 -0.25953,0.038933 -0.48906,0.043181 -0.7207,0.328125 -0.11583,0.1424723 -0.16455,0.3906384 -0.1211,0.5585938 0.0315,0.1217409 0.0935,0.1887305 0.15039,0.2617187 -0.004,5.289e-4 -0.004,0.00143 -0.008,0.00195 -0.73872,0.093587 -1.94508,0.1769495 -3.51367,0.2421876 -3.13718,0.130476 -7.74159,0.1912144 -13.18359,0.15625 -5.234427,-0.033652 -10.069313,0.013699 -13.648442,0.1152343 -1.789565,0.050768 -3.263832,0.1152665 -4.324219,0.1914063 -0.530194,0.03807 -0.955686,0.077472 -1.275391,0.1230468 -0.159852,0.022787 -0.292649,0.046303 -0.410156,0.076172 -0.117507,0.029869 -0.205921,0.00744 -0.398438,0.1992188 -0.156777,0.156177 -0.176224,0.3045319 -0.189453,0.4199219 -0.01323,0.1153899 -0.0079,0.2204005 0.0039,0.3339843 0.02358,0.2271677 0.07913,0.489954 0.162109,0.8066407 0.165966,0.6333732 0.444181,1.4727642 0.814453,2.4785152 0.740544,2.011504 1.851976,4.675863 3.158203,7.523438 17.356787,37.837602 24.371657,71.696597 23.093747,111.437498 -4e-5,0.001 5e-5,0.003 0,0.004 l -0.64453,20.00195 9.19141,-0.64844 c 2.38986,-0.16865 4.67322,-0.4368 6.44336,-0.73437 0.88506,-0.14879 1.64124,-0.30392 2.22656,-0.46289 0.29266,-0.0795 0.54169,-0.16038 0.75195,-0.2461 0.21026,-0.0857 0.37976,-0.15905 0.54493,-0.32421 0.26378,-0.26379 0.31893,-0.53455 0.41796,-0.91993 0.099,-0.38537 0.18779,-0.87399 0.27149,-1.46679 0.1674,-1.18561 0.31356,-2.78277 0.43945,-4.68946 0.25179,-3.81337 0.42003,-8.8611 0.4961,-14.24218 0.15212,-10.76217 -0.0661,-22.83077 -0.7754,-29.005863 -2.87266,-25.007897 -10.20975,-54.005624 -19.51171,-77.125 -2.15905,-5.366153 -3.34298,-8.661095 -3.6875,-10.511719 -0.17227,-0.9253119 -0.10751,-1.4607921 0.008,-1.6699218 C 104.1329,8.5760266 104.29083,8.5 104.78516,8.5 c 0.13707,0 0.0631,-0.00652 0.0547,-0.029297 -0.008,-0.02278 0.0152,0.082175 -0.10546,0.2773438 -0.1048,0.1695625 -0.10566,0.2907729 -0.11133,0.4101562 -0.006,0.1193833 0.002,0.2391367 0.0176,0.375 0.0304,0.2717266 0.0947,0.6029789 0.1875,1.0019529 0.18563,0.797948 0.48952,1.861189 0.89063,3.128906 0.80221,2.535435 1.9897,5.880718 3.375,9.435547 8.4657,21.723801 15.01658,46.869366 18.22461,69.96875 0.78756,5.67089 1.2861,18.409521 1.24414,32.099611 l -0.0703,23.17773 11.24219,-0.17773 c 2.95948,-0.0465 5.60755,-0.15535 7.50195,-0.29688 0.9472,-0.0708 1.70345,-0.14892 2.23242,-0.23437 0.26448,-0.0427 0.46788,-0.0832 0.64453,-0.14453 0.0883,-0.0307 0.17001,-0.0547 0.28711,-0.1543 0.0386,-0.0328 0.0776,-0.11012 0.11719,-0.17773 0.0338,-0.0133 0.0317,-0.0156 0.0957,-0.0332 0.25053,-0.069 0.69202,-0.14871 1.25391,-0.21875 1.12377,-0.14007 2.74834,-0.25429 4.58008,-0.30468 4.25331,-0.11702 7.07412,-0.33899 8.82812,-0.77149 0.877,-0.21625 1.50436,-0.47192 1.92188,-0.89844 0.41751,-0.42651 0.50411,-1.07596 0.29492,-1.62109 0.0121,0.0315 -0.0239,-0.12064 -0.0332,-0.33008 -0.009,-0.20944 -0.008,-0.49437 0.004,-0.83984 0.0248,-0.69095 0.0941,-1.62244 0.20117,-2.7168 0.21422,-2.18871 0.57955,-5.03617 1.04492,-8.0039 2.54137,-16.20665 1.60651,-45.387808 -1.99218,-62.376958 -3.48806,-16.466884 -9.42962,-33.977485 -16.68555,-49.169922 -1.62586,-3.404226 -3.07538,-6.678594 -4.09766,-9.203125 -0.51114,-1.2622655 -0.91727,-2.3379955 -1.18164,-3.140625 -0.13218,-0.4013148 -0.22808,-0.7348287 -0.28515,-0.9804688 -0.0571,-0.24564 -0.0538,-0.4330404 -0.0625,-0.3789062 0.068,-0.4206749 0.006,-0.9350427 -0.35742,-1.2695312 -0.36331,-0.3344886 -0.86635,-0.4685315 -1.59571,-0.5605469 z m 6.01367,0.7285156 c 1.21553,-0.0429 3.1362,-0.0043 5.67188,0.1503906 2.461,0.1501363 4.84467,0.4006658 6.6875,0.6796875 0.92141,0.1395109 1.70834,0.2870237 2.29492,0.4296875 0.58658,0.1426639 1.00617,0.3354574 1.01172,0.3398438 0.19425,0.153458 0.60366,0.6221561 1.08789,1.2988281 0.48423,0.676672 1.06795,1.5712646 1.71875,2.630859 1.3016,2.11919 2.8782,4.901236 4.5293,7.976563 3.30218,6.150653 6.90398,13.475166 9.22851,19.027344 8.98622,21.463755 12.79178,39.495891 12.85547,60.898437 0.0449,15.104317 -1.2491,24.574157 -4.97656,36.468747 -1.16886,3.72991 -1.80751,5.6216 -2.49219,6.54102 -0.34234,0.45971 -0.67257,0.69558 -1.16797,0.88672 -0.4954,0.19114 -1.16568,0.31565 -2.08008,0.46679 -2.23862,0.37003 -5.66293,0.58066 -8.58984,0.60547 -1.46346,0.0124 -2.80513,-0.0224 -3.81055,-0.10156 -0.50271,-0.0396 -0.9235,-0.0902 -1.21875,-0.14844 -0.24042,-0.0474 -0.30935,-0.0959 -0.30859,-0.0762 -0.009,-0.10173 -0.0141,-0.25566 -0.008,-0.45898 0.0134,-0.42915 0.0664,-1.04427 0.15429,-1.78321 0.17584,-1.47788 0.49166,-3.46052 0.90235,-5.57617 2.49142,-12.83462 2.17384,-45.887452 -0.5625,-60.417967 -3.91636,-20.796526 -9.66983,-38.47304 -18.6543,-57.318359 -2.56987,-5.390415 -3.91011,-8.3604308 -4.26953,-9.8476565 -0.0899,-0.3718064 -0.11604,-0.6450215 -0.10352,-0.8183594 0.0125,-0.1733378 0.048,-0.2334359 0.0879,-0.2773437 0.0799,-0.087816 0.38961,-0.1929085 0.98438,-0.2167969 0.38088,-0.015303 0.66529,-0.032453 0.89844,-0.074219 0.11657,-0.020883 0.2188,-0.037569 0.35742,-0.1171876 0.0693,-0.039809 0.15875,-0.1031169 0.22852,-0.2246093 0.0698,-0.1214924 0.0867,-0.3016032 0.0527,-0.4257813 -0.068,-0.2483562 -0.18916,-0.3114743 -0.28516,-0.3828125 -0.0667,-0.049587 -0.14701,-0.091476 -0.22461,-0.1347656 z m -6.13867,0.2636719 c 0.64567,0.081457 0.96135,0.2295391 1.04297,0.3046875 0.0816,0.075148 0.0909,0.1008468 0.0469,0.3730469 -0.0442,0.2729141 0.008,0.4725707 0.0762,0.765625 0.0681,0.2930542 0.17253,0.6473935 0.31054,1.0664062 0.27603,0.8380255 0.68674,1.9278905 1.20313,3.203125 1.03278,2.550469 2.48934,5.839112 4.12305,9.259766 7.21862,15.114323 13.13926,32.565109 16.60937,48.947265 3.55757,16.79503 4.48926,46.027184 1.98242,62.013674 -0.4681,2.98513 -0.83595,5.84566 -1.05273,8.06054 -0.10839,1.10745 -0.17903,2.05242 -0.20508,2.77735 -0.013,0.36247 -0.0152,0.66968 -0.004,0.92187 0.0113,0.2522 0.0177,0.43093 0.0996,0.64454 0.11655,0.30371 0.1058,0.37661 -0.0762,0.5625 -0.18196,0.18588 -0.65518,0.43164 -1.44726,0.62695 -1.58416,0.39062 -4.38566,0.62583 -8.61524,0.74219 -1.39295,0.0383 -2.46227,0.13799 -3.50781,0.23437 8.8e-4,-9e-4 0.003,-0.001 0.004,-0.002 0.33178,-0.33922 0.46697,-0.78467 0.65429,-1.44141 0.18733,-0.65674 0.37082,-1.50532 0.55078,-2.51758 0.35992,-2.02452 0.70688,-4.70119 1.00977,-7.7207 0.60579,-6.03902 1.03711,-13.44253 1.03711,-19.65625 0,-20.50736 -3.9985,-45.175735 -10.55859,-65.15625 -2.33974,-7.126295 -6.83767,-17.475053 -11.10743,-26.195312 -2.13487,-4.36013 -4.21059,-8.31001 -5.93554,-11.246094 -0.86248,-1.468043 -1.63709,-2.6819304 -2.29493,-3.5761721 -0.32891,-0.4471209 -0.6276,-0.8146895 -0.90429,-1.0996094 -0.27669,-0.2849199 -0.51644,-0.4960277 -0.82813,-0.6113281 -0.3527,-0.1304733 -0.59122,-0.2457605 -0.77929,-0.3476563 0.12427,-0.0449 0.19386,-0.083591 0.40234,-0.1308593 1.45353,-0.329568 4.76096,-0.5848916 10.02344,-0.7753907 4.35069,-0.1574938 6.84928,-0.1902579 8.14062,-0.027344 z M 119.23242,6.515625 c 1.38074,-0.010256 2.68018,0.6435339 4.32422,2.5 1.64404,1.856466 3.56702,4.89362 6.05078,9.453125 9.14941,16.795792 16.72913,38.973708 21.22461,62.126953 1.86063,9.582911 2.55732,48.374417 1.05274,59.826177 -0.25447,1.93681 -0.36842,3.35242 -0.33594,4.26367 0.0162,0.45562 0.025,0.76605 0.22461,1.08984 0.0368,0.0596 0.15513,0.0675 0.22656,0.12305 -0.0671,0.008 -0.19158,0.01 -0.25586,0.0176 -0.58728,0.0732 -1.05343,0.15156 -1.39648,0.24609 -0.17153,0.0473 -0.30869,0.0883 -0.45899,0.18359 -0.0655,0.0415 -0.14154,0.11383 -0.21094,0.22461 -0.086,0.023 -0.18576,0.0485 -0.36914,0.0781 -0.47362,0.0765 -1.2146,0.15499 -2.14648,0.22461 -1.86377,0.13924 -4.49941,0.24864 -7.44336,0.29492 l -10.22461,0.16211 0.0684,-22.16016 c 0.042,-13.71603 -0.44641,-26.423829 -1.25391,-32.238279 -3.21993,-23.185056 -9.78608,-48.390881 -18.2832,-70.195313 -1.37851,-3.537391 -2.56073,-6.867402 -3.35351,-9.373047 -0.3964,-1.252822 -0.69581,-2.301184 -0.8711,-3.054687 -0.0876,-0.3767519 -0.14313,-0.6820301 -0.16601,-0.886719 -0.0114,-0.1023444 -0.0135,-0.1799297 -0.0117,-0.2167969 0.002,-0.036867 0.0247,-0.031663 -0.0371,0.068359 0.2232,-0.3611411 0.33574,-0.7609479 0.1914,-1.1503906 -0.0136,-0.036749 -0.0752,-0.024681 -0.0937,-0.058594 3.02181,-0.02007 6.39099,-0.016038 8.40039,-0.099609 1.58239,-0.065812 2.79937,-0.1488655 3.59766,-0.25 0.39915,-0.050567 0.68027,-0.095753 0.91797,-0.1816407 0.11885,-0.042944 0.26526,-0.044398 0.41211,-0.3242187 0.0734,-0.1399104 0.0687,-0.3796092 -0.004,-0.5136719 -0.0503,-0.092864 -0.10153,-0.1216064 -0.15234,-0.1601563 0.13045,-0.00669 0.20807,-0.018276 0.37695,-0.019531 z m -15.85351,1.5761719 c -0.0725,0.078713 -0.18192,0.1122675 -0.23633,0.2109375 -0.31883,0.5781803 -0.30705,1.3160695 -0.11719,2.3359376 0.37973,2.039736 1.57991,5.322124 3.74414,10.701172 9.26179,23.019516 16.58468,51.964084 19.44531,76.867187 0.69504,6.050639 0.92132,18.139229 0.76954,28.876949 -0.0759,5.36887 -0.24423,10.40452 -0.49415,14.18946 -0.12495,1.89247 -0.27041,3.47336 -0.43164,4.61523 -0.0806,0.57094 -0.16648,1.0344 -0.25,1.35938 -0.0835,0.32497 -0.22006,0.52475 -0.15625,0.46093 0.0259,-0.0259 -0.0625,0.0434 -0.21484,0.10547 -0.15237,0.0621 -0.36975,0.13257 -0.63672,0.20508 -0.53394,0.14502 -1.26696,0.29813 -2.13086,0.44336 -1.72779,0.29046 -3.98925,0.55608 -6.34961,0.72266 l -8.08398,0.57031 0.60742,-18.8457 0.002,-0.0469 C 110.12858,90.984733 103.06928,56.924345 85.660156,18.972656 84.362998,16.144852 83.260675,13.495528 82.533203,11.519531 82.169467,10.531533 81.899364,9.7102817 81.748047,9.1328125 81.682294,8.8818824 81.650285,8.7024869 81.630859,8.5625 c 0.04403,-0.00767 0.06595,-0.013623 0.121094,-0.021484 0.277939,-0.039621 0.687868,-0.08005 1.205078,-0.1171875 1.03442,-0.074275 2.500169,-0.1369728 4.28125,-0.1875 3.562162,-0.1010543 8.390643,-0.1488227 13.615239,-0.1152343 1.04086,0.00669 1.54988,-0.029174 2.52539,-0.029297 z M 330.10352,69.480469 c -2.79988,0.165201 -5.60252,0.833373 -8.17383,2.078125 -5.40826,2.618093 -9.20935,5.750223 -11.63672,9.921875 -2.42737,4.171652 -3.4677,9.347416 -3.47656,16.019531 -0.006,4.50302 0.10125,7.2229 1.14648,11.15625 1.04523,3.93335 3.01236,9.06856 6.72656,18.52734 7.54021,19.20228 7.47852,18.89879 7.47852,31.94532 0,14.13446 -2.2271,26.22407 -6.0625,33.33984 -0.57182,1.06089 -0.6715,1.18689 -1.13086,2.0332 4.11998,-8.14038 6.31337,-18.37854 6.90234,-32.08789 0.18673,-4.34647 0.23883,-7.68464 0.15625,-10.00976 -0.0413,-1.16257 -0.11425,-2.06915 -0.22851,-2.74024 -0.0571,-0.33554 -0.12389,-0.61164 -0.21289,-0.8457 -0.089,-0.23406 -0.18501,-0.45017 -0.43946,-0.60742 -0.30758,-0.1901 -0.63817,-0.18695 -0.9707,-0.13672 -0.33253,0.0502 -0.68641,0.16561 -1.06641,0.33008 -0.75998,0.32894 -1.61658,0.8584 -2.42968,1.52734 -12.18219,10.02234 -40.67627,23.48177 -54.95899,25.98047 -1.38407,0.24214 -2.19128,0.24617 -2.32812,0.20117 0.002,-0.0753 0.0387,-0.27961 0.15625,-0.58594 0.1249,-0.32548 0.26569,-0.58384 0.0684,-0.98046 -0.0987,-0.19832 -0.35255,-0.34613 -0.54102,-0.36329 -0.18847,-0.0172 -0.3314,0.0263 -0.47851,0.0801 -0.58847,0.21518 -1.33172,0.75071 -2.47266,1.66016 -6.64773,5.29894 -20.65786,16.01071 -33.17969,25.45703 -1.77544,1.33937 -3.00668,2.24403 -4.69726,3.51367 6.33004,-4.86573 12.07645,-9.3054 21.8164,-16.66601 5.84946,-4.42052 10.2872,-8.0121 12.49805,-10.03516 0.55271,-0.50577 0.96517,-0.91099 1.24023,-1.22656 0.13754,-0.15779 0.24121,-0.28738 0.32227,-0.4375 0.0405,-0.0751 0.0811,-0.15487 0.0957,-0.29297 0.0146,-0.1381 -0.054,-0.39367 -0.22461,-0.51758 -0.17064,-0.12391 -0.31615,-0.11663 -0.41601,-0.10937 -0.0999,0.007 -0.17864,0.0267 -0.26172,0.0527 -0.16617,0.052 -0.34574,0.13125 -0.56836,0.24219 -0.44523,0.22187 -1.05105,0.57263 -1.85156,1.07031 -1.68253,1.04602 -3.95554,2.71852 -5.13672,3.78711 -0.97538,0.88239 -2.19647,1.50764 -2.94727,1.69531 -0.2606,0.0651 -0.29658,0.0458 -0.35937,0.0469 0.019,-0.0429 0.009,-0.0425 0.0469,-0.10352 0.055,-0.089 0.10942,-0.2198 0.0977,-0.38086 -0.0118,-0.16105 -0.10388,-0.3144 -0.19727,-0.39844 -0.18677,-0.16807 -0.33907,-0.18171 -0.49609,-0.20507 -0.31405,-0.0467 -0.69173,-0.0318 -1.18164,0.0156 -0.97983,0.0949 -2.36481,0.34327 -3.95508,0.72266 -7.95497,1.8978 -16.7131,3.13698 -23.67187,3.55859 -3.47939,0.2108 -6.51112,0.217 -8.75,0.004 -1.11945,-0.10655 -2.04152,-0.26992 -2.70508,-0.47657 -0.66356,-0.20665 -1.03981,-0.476 -1.13672,-0.63281 0.0386,0.0625 8.8e-4,0.0225 0.0391,-0.12695 0.0382,-0.14942 0.13402,-0.37546 0.2832,-0.63086 0.29838,-0.5108 0.80192,-1.14587 1.41993,-1.73633 0.65482,-0.62563 1.04422,-1.01365 1.24609,-1.29101 0.0252,-0.0347 0.0476,-0.0683 0.0742,-0.11915 0.0266,-0.0509 0.0906,-0.0976 0.0644,-0.32226 -0.0131,-0.11234 -0.1007,-0.28924 -0.23242,-0.37305 -0.13172,-0.0838 -0.24424,-0.0826 -0.3125,-0.0781 -0.13652,0.009 -0.17771,0.0395 -0.22266,0.0605 -0.17979,0.0842 -0.30406,0.18432 -0.53711,0.36329 -0.55595,0.42693 -0.87378,0.5887 -1.21875,0.7832 0.36318,-0.44155 0.91662,-1.01001 1.68555,-1.66797 1.35532,-1.15973 2.1306,-1.86405 2.47266,-2.55859 0.17102,-0.34727 0.19658,-0.80003 -0.0195,-1.1211 -0.21611,-0.32106 -0.53542,-0.47443 -0.90235,-0.61523 -0.48823,-0.18735 -0.86102,-0.29659 -1.27148,-0.20117 -0.20523,0.0477 -0.47895,0.2338 -0.54688,0.51172 -0.0679,0.27791 0.0302,0.4893 0.14063,0.66796 -0.0661,-0.107 -0.0365,-0.17275 -0.0449,-0.14062 -0.008,0.0321 -0.0462,0.1255 -0.11719,0.24414 -0.14191,0.23729 -0.40868,0.5809 -0.76758,0.97266 -0.7178,0.7835 -1.80472,1.77441 -3.06445,2.75586 -2.33171,1.81661 -4.05884,2.87731 -4.93946,3.24218 0.11947,-0.18289 0.23802,-0.36658 0.44532,-0.625 0.24091,-0.30033 0.39457,-0.47736 0.48242,-0.77344 0.022,-0.074 0.0442,-0.16493 0.0215,-0.29882 -0.0228,-0.1339 -0.13176,-0.31106 -0.26953,-0.39063 -0.27554,-0.15913 -0.43013,-0.076 -0.55859,-0.0371 -0.25693,0.0777 -0.51048,0.22181 -0.87305,0.44336 -0.36256,0.22155 -0.81329,0.52078 -1.35742,0.90235 -0.90652,0.63568 -1.73036,1.27503 -2.33789,1.80468 -0.30377,0.26483 -0.55312,0.5007 -0.74024,0.70703 -0.0935,0.10317 -0.16981,0.19908 -0.23632,0.30079 -0.0665,0.10171 -0.14844,0.19366 -0.14844,0.43164 0,0.13184 0.0524,0.321 0.18945,0.44921 0.13705,0.12822 0.3017,0.16298 0.41797,0.16602 0.23254,0.006 0.37842,-0.0622 0.55078,-0.14258 0.34473,-0.16072 0.7438,-0.43221 1.18555,-0.79883 0.16951,-0.14072 0.31778,-0.1853 0.48633,-0.28711 -0.18279,0.16743 -0.28703,0.28695 -0.52539,0.48633 -1.03997,0.8699 -2.57039,2.0085 -4.32227,3.19141 -5.6801,3.83532 -14.3524,10.15943 -21.67773,15.69141 -3.66267,2.76598 -6.98782,5.33242 -9.4336,7.29296 -1.22289,0.98028 -2.22531,1.80768 -2.94531,2.4375 -0.36,0.31492 -0.64943,0.58104 -0.86523,0.79688 -0.21581,0.21584 -0.35066,0.30436 -0.4668,0.5957 -0.0825,0.207 -0.14068,0.40562 -0.0996,0.65235 0.0411,0.24672 0.27368,0.50886 0.50391,0.58398 0.46044,0.15023 0.83181,-4.2e-4 1.35937,-0.20508 1.05513,-0.40931 2.62694,-1.29333 4.73633,-2.63086 4.21877,-2.67504 10.52697,-7.15867 18.44726,-13.14843 4.46269,-3.37493 8.71971,-6.50802 11.97852,-8.83204 1.62941,-1.162 3.01038,-2.12082 4.03906,-2.80664 0.51435,-0.34291 0.94013,-0.6181 1.26172,-0.8125 0.32159,-0.19439 0.5774,-0.3136 0.58008,-0.31445 1.22391,-0.38845 2.45499,-1.67784 3.06445,-3.02734 0.2449,-0.54225 0.63313,-1.1035 1.04688,-1.54102 0.29423,-0.31113 0.55203,-0.43951 0.80273,-0.58203 -0.43685,0.50377 -0.78557,1.00819 -0.73047,1.58789 0.0616,0.64811 0.46521,1.2 1.09375,1.89453 0.34119,0.37701 0.56399,0.6711 0.62696,0.80664 0.009,0.02 0.004,0.003 0.008,0.0137 -0.0663,0.0498 -0.34567,0.18423 -0.85547,0.30469 -0.5261,0.12431 -1.27145,0.25355 -2.25195,0.41016 -3.6113,0.57681 -7.87446,3.33025 -21.26953,13.47851 l -17.69336,13.4043 8.91601,1.44531 c 15.40329,2.49536 20.83714,3.43929 22.36719,3.85547 0.38275,0.10411 0.63208,-0.015 0.99023,-0.15234 0.35816,-0.13736 0.79099,-0.34532 1.31055,-0.62696 1.03912,-0.56326 2.42039,-1.41554 4.11328,-2.53124 3.38578,-2.23142 8.00991,-5.51832 13.51563,-9.62305 14.31039,-10.66895 22.41126,-16.68207 26.98437,-19.96289 0.11879,-0.0852 0.12224,-0.0786 0.23633,-0.16016 -3.21918,2.50668 -7.72668,5.90821 -12.73828,9.59375 -13.0333,9.58471 -21.05691,15.54538 -25.95899,19.3457 -4.90208,3.80033 -6.67021,5.36501 -7.29882,6.48829 -0.18227,0.32568 -0.31019,0.5444 -0.34571,0.85351 -0.0178,0.15456 0.0117,0.43045 0.23438,0.59766 0.22269,0.16721 0.43584,0.1324 0.58008,0.0996 0.28847,-0.0656 0.53765,-0.20892 0.90039,-0.43164 0.36274,-0.22273 0.81283,-0.52966 1.36914,-0.92578 1.60193,-1.14068 2.25709,-1.62543 5.08398,-1.6543 2.8269,-0.0289 7.74866,0.48087 17.44531,1.50976 6.65496,0.70615 22.83681,1.31719 36.05079,1.36524 11.23103,0.0409 17.35208,0.0263 21.56054,-0.27344 4.20846,-0.29972 6.51177,-0.8963 9.97852,-1.98633 13.45416,-4.23028 25.55354,-14.32087 31.96484,-26.58398 -3.06708,5.63045 -4.1956,7.47824 -6.31445,9.86914 -0.98873,1.11568 -1.54382,1.85423 -1.79297,2.4043 -0.0623,0.13751 -0.10991,0.26601 -0.125,0.42382 -0.0151,0.15782 0.0195,0.39757 0.19922,0.5625 0.17967,0.16494 0.3933,0.18017 0.54101,0.16602 0.14772,-0.0142 0.27217,-0.0553 0.4043,-0.10938 0.52853,-0.21614 1.20731,-0.6859 2.08789,-1.40429 0.88058,-0.71839 1.93509,-1.68195 3.08594,-2.86133 13.49215,-13.82663 19.66875,-36.63066 16.43945,-60.37305 -0.70108,-5.15443 -2.79255,-15.54037 -4.6582,-23.15234 -2.06116,-8.40968 -3.12145,-13.62162 -3.25391,-17.07617 -0.13245,-3.45456 0.5913,-5.087397 2.19336,-6.689456 2.05151,-2.051517 3.99325,-2.601679 5.34571,-2.109375 1.35246,0.492303 2.3457,2.079565 2.3457,4.865234 0,4.143197 2.28954,7.216627 5.19922,8.412107 2.90968,1.19549 6.46046,0.4693 8.75976,-2.75976 4.65235,-6.533625 6.29089,-17.384392 3.8711,-25.460941 -1.35577,-4.52515 -5.59907,-7.798706 -10.73047,-9.333984 -2.5657,-0.767639 -5.36419,-1.106607 -8.16406,-0.941406 z m 0.0625,1.001953 c 2.68063,-0.157952 5.36343,0.163158 7.81445,0.896484 4.90204,1.466653 8.83231,4.564573 10.06055,8.664063 2.31168,7.715731 0.68052,18.401823 -3.72852,24.593751 -2.06419,2.89888 -5.03922,3.45355 -7.56445,2.41601 -2.52524,-1.03753 -4.58008,-3.71071 -4.58008,-7.488277 0,-3.031001 -1.14779,-5.129761 -3.00195,-5.804687 -1.85417,-0.674927 -4.1836,0.128903 -6.39649,2.341796 -1.74999,1.749991 -2.62506,3.817316 -2.48633,7.435548 0.13873,3.61823 1.21832,8.85052 3.28321,17.27539 1.85665,7.57527 3.94929,17.98039 4.63867,23.04883 3.19478,23.48857 -2.94988,45.99729 -16.16406,59.53906 -1.12774,1.1557 -2.15806,2.09669 -3.00196,2.78516 -0.37239,0.3038 -0.51905,0.35155 -0.81054,0.55273 0.27392,-0.3754 0.36065,-0.57366 0.87695,-1.15625 2.51784,-2.84111 3.10095,-3.77057 7.88086,-12.63867 3.98174,-7.38727 6.18164,-19.57599 6.18164,-33.81445 0,-13.04511 -0.007,-13.11076 -7.54688,-32.3125 -3.71307,-9.4559 -5.67087,-14.5756 -6.6914,-18.41602 -1.02053,-3.84042 -1.11926,-6.41316 -1.11328,-10.90039 0.009,-6.568795 1.03269,-11.54918 3.34179,-15.517578 2.3091,-3.968398 5.91607,-6.961181 11.20899,-9.523438 2.44061,-1.181478 5.11819,-1.818611 7.79883,-1.976562 z M 8.3007812,112.65039 c -1.5883199,0.0525 -2.9460191,0.93018 -4.8046874,2.49414 -2.63299075,2.21551 -3.98783889,5.05528 -3.9960938,7.73438 -0.008255,2.6791 1.36650724,5.18778 4.0410156,6.61914 0.7339406,0.39279 1.3262589,0.641 1.8339844,0.73828 0.2538627,0.0486 0.491183,0.0638 0.7285156,0.006 0.2373326,-0.058 0.4783214,-0.22007 0.6074219,-0.44531 0.258201,-0.45049 0.1434643,-0.92824 -0.0625,-1.47266 -0.2059643,-0.54442 -0.5597434,-1.18963 -1.0664063,-1.96289 -1.4817972,-2.26152 -1.2758729,-4.14329 -0.083984,-5.37695 1.1918886,-1.23367 3.5266083,-1.84738 6.5292971,-1.09376 1.129122,0.2834 1.955503,0.68675 2.615234,1.41016 0.659731,0.72341 1.172707,1.8062 1.550781,3.50195 0.756148,3.39152 0.936581,9.16519 0.875,18.90821 -0.13005,20.57694 1.22186,28.37239 6.613282,38.00195 4.533562,8.09733 7.509536,10.65986 15.574218,13.4082 l 0.07813,0.0273 h 0.0098 c 3.723253,1.26801 5.873963,1.9692 7.046875,2.17383 0.296888,0.0518 0.535036,0.0768 0.761719,0.0566 0.226683,-0.0201 0.505076,-0.10099 0.667968,-0.35743 0.162893,-0.25643 0.116524,-0.52664 0.05273,-0.7207 -0.06379,-0.19405 -0.159528,-0.37066 -0.279297,-0.56445 C 47.100876,194.93884 46.07199,194.5 45.076172,194.5 c -0.658064,0 -1.736943,-0.29489 -2.97461,-0.82812 -1.237666,-0.53324 -2.648308,-1.29412 -4.064453,-2.18165 -2.832289,-1.77505 -5.693685,-4.07181 -7.287109,-6.02734 -1.856289,-2.27814 -4.67729,-7.13796 -6.169922,-10.6582 -2.393642,-5.64518 -2.77527,-7.98242 -3.169922,-19.32227 -0.01517,-0.43594 0.01122,-0.94044 0,-1.39062 0.04741,0.80505 0.037,1.38847 0.09961,2.23242 0.444268,5.98816 1.221049,12.56856 2.078125,15.32422 0.88089,2.83221 3.05147,7.30295 4.888671,10.08594 4.998131,7.57113 10.319474,11.0702 20.697266,13.63867 4.878412,1.20739 9.6428,2.42767 10.460938,2.67187 0.312131,0.0932 0.557465,0.0272 0.855468,-0.0605 0.298004,-0.0877 0.640191,-0.22765 1.039063,-0.41602 0.797744,-0.37674 1.818588,-0.95083 3.039062,-1.70313 2.440948,-1.50458 5.671778,-3.71863 9.365235,-6.43945 3.363155,-2.4775 6.548733,-4.72376 8.966797,-6.34375 0.628997,-0.4214 1.032833,-0.66291 1.546875,-0.99219 -1.850587,1.30119 -6.285905,4.52805 -11.16211,8.14454 -2.642936,1.96016 -5.289171,3.8724 -7.417968,5.37109 -2.128798,1.49869 -3.78542,2.60545 -4.289063,2.875 -0.632188,0.33833 -1.200761,0.75614 -1.630859,1.17969 -0.430099,0.42354 -0.779297,0.80635 -0.779297,1.375 0,0.33464 -0.05786,0.63 0.175781,0.98828 0.11682,0.17913 0.354404,0.31951 0.564453,0.34765 0.210049,0.0281 0.396152,-0.007 0.603516,-0.0664 0.829456,-0.23626 2.13836,-0.95028 4.810547,-2.3711 5.213016,-2.77178 19.27117,-13.28177 26.765625,-19.96875 2.5175,-2.24626 6.119063,-5.36527 7.986329,-6.91796 l 3.41406,-2.83985 -0.60547,-0.79492 L 99.132812,172 c -2.070804,1.42934 -5.342403,3.78011 -7.291015,5.23828 -0.896352,0.67075 -1.743278,1.20316 -2.425781,1.57227 0.05734,-0.0552 0.07255,-0.0826 0.134765,-0.14063 0.798625,-0.74524 1.990067,-1.72295 3.365235,-2.73242 1.395152,-1.02414 2.663508,-2.01144 3.589843,-2.78516 0.463168,-0.38686 0.839112,-0.71972 1.111329,-0.98437 0.136108,-0.13233 0.245393,-0.24693 0.333984,-0.35547 0.0443,-0.0543 0.08481,-0.10602 0.123047,-0.17188 0.03824,-0.0659 0.09375,-0.13623 0.09375,-0.32226 0,-0.0881 -0.02599,-0.21407 -0.105469,-0.32031 -0.07948,-0.10625 -0.1969,-0.16883 -0.283203,-0.19336 -0.172607,-0.0491 -0.25576,-0.0177 -0.328125,0 -0.144731,0.0353 -0.249944,0.0881 -0.386719,0.1582 -0.273549,0.14029 -0.628018,0.35786 -1.066406,0.64649 -0.876777,0.57725 -2.07118,1.4334 -3.384766,2.43945 -3.476263,2.66241 -5.547364,4.10472 -7.080078,4.69531 -1.532714,0.59059 -2.527948,0.4173 -4.214844,-0.22656 -0.705288,-0.2692 -1.233256,-0.47901 -1.574218,-0.64649 -0.285457,-0.1402 -0.336282,-0.21182 -0.351563,-0.21093 0.01665,-0.0223 0.01121,-0.0215 0.04297,-0.0547 0.154883,-0.162 0.480707,-0.41835 0.929687,-0.74805 0.430841,-0.31638 0.732565,-0.53699 0.947266,-0.82422 0.107351,-0.14361 0.250838,-0.38354 0.138672,-0.6875 -0.112166,-0.30395 -0.373405,-0.39419 -0.556641,-0.4375 -0.366472,-0.0866 -0.792218,-0.066 -1.464843,-0.0156 -0.672626,0.0503 -1.565284,0.14831 -2.720704,0.28515 -1.013648,0.12006 -2.294515,0.0181 -3.541015,-0.0625 0.645322,-0.18039 1.301106,-0.44036 2.029297,-0.83007 0.529359,-0.28331 0.930527,-0.49905 1.230468,-0.69532 0.149971,-0.0981 0.274274,-0.18963 0.386719,-0.30468 0.112445,-0.11506 0.232068,-0.27129 0.253906,-0.5 0.02184,-0.22871 -0.09566,-0.45019 -0.214843,-0.57422 -0.119181,-0.12404 -0.245532,-0.20051 -0.388672,-0.27735 -0.286281,-0.15366 -0.651921,-0.29692 -1.136719,-0.48632 -1.545981,-0.60424 -4.163411,-0.85422 -6.472656,-0.85352 -1.154623,3.5e-4 -2.220219,0.0667 -3.033203,0.21289 -0.406493,0.0731 -0.748559,0.16194 -1.035157,0.29883 -0.143298,0.0684 -0.275286,0.14774 -0.394531,0.27344 -0.119244,0.12569 -0.224609,0.32275 -0.224609,0.53711 0,0.33058 0.159974,0.55685 0.339843,0.76367 0.17987,0.20682 0.409203,0.39953 0.681641,0.58984 0.457886,0.31986 1.083755,0.60793 1.728516,0.87109 v 0.0254 c -0.115613,-0.03 -0.253601,-0.0394 -0.367188,-0.0703 -1.62002,-0.44037 -3.031266,-0.97013 -3.945312,-1.48632 -0.457023,-0.2581 -0.78688,-0.5171 -0.947266,-0.7129 -0.160386,-0.19579 -0.152641,-0.2436 -0.126953,-0.31054 0.128253,-0.33423 0.04108,-0.7489 -0.171875,-1.01563 -0.212958,-0.26672 -0.506865,-0.44748 -0.869141,-0.60937 -0.72455,-0.32379 -1.758351,-0.5565 -3.091796,-0.7168 -3.121904,-0.37531 -8.505299,-2.95943 -14.011719,-6.54687 -5.50642,-3.58745 -11.187328,-8.17008 -15.125,-12.47852 -1.403008,-1.53512 -2.757004,-2.92934 -3.81836,-3.94727 -0.530678,-0.50896 -0.987156,-0.92251 -1.347656,-1.21875 -0.18025,-0.14811 -0.335773,-0.26788 -0.476562,-0.35937 -0.14079,-0.0915 -0.205518,-0.19336 -0.519532,-0.19336 -0.217515,0 -0.401937,0.13034 -0.49414,0.24219 -0.0922,0.11185 -0.136087,0.21898 -0.175781,0.33008 -0.0094,0.0263 -0.01103,0.0665 -0.01953,0.0937 0.102591,-4.11636 0.302395,-7.88847 0.619141,-10.09571 0.508239,-3.54167 0.75347,-5.52123 0.5625,-7.26758 -0.19097,-1.74634 -0.822048,-3.18402 -1.980469,-5.57421 -1.747546,-3.60576 -3.729874,-5.87477 -6.5625,-7.4668 -2.51281,-1.41228 -4.1597268,-2.16383 -5.7480468,-2.11133 z m 0.033203,1 c 1.2387074,-0.0409 2.7466006,0.5897 5.2246096,1.98242 2.656374,1.49297 4.462982,3.54152 6.154297,7.03125 1.151829,2.3766 1.715066,3.67836 1.886718,5.24805 0.171653,1.56969 -0.05153,3.48412 -0.558593,7.01758 -0.603682,4.20675 -0.878711,13.40988 -0.628907,20.58789 0.395308,11.35869 0.82943,13.97365 3.248047,19.67773 1.539069,3.62976 4.335243,8.4714 6.314453,10.90039 1.718746,2.10933 4.628625,4.42306 7.53125,6.24219 1.451313,0.90957 2.898221,1.69143 4.199219,2.25195 1.300998,0.56053 2.442273,0.91016 3.371094,0.91016 0.625822,0 1.479049,0.46116 1.666016,0.76367 0.02728,0.0441 0.0272,0.0571 0.04883,0.0957 -0.08079,-0.007 -0.11428,-0.002 -0.228516,-0.0215 -1.003308,-0.17504 -3.179746,-0.86749 -6.984375,-2.16406 -7.962778,-2.71362 -10.536033,-4.93085 -15.025391,-12.94922 -5.314858,-9.49282 -6.614144,-16.97541 -6.484375,-37.50781 0.06167,-9.7572 -0.09804,-15.54282 -0.898437,-19.13282 -0.4002,-1.79499 -0.969408,-3.05826 -1.789063,-3.95703 -0.819654,-0.89876 -1.870557,-1.39415 -3.109375,-1.70507 -3.2452206,-0.81451 -5.971299,-0.20903 -7.4941402,1.36718 -1.5228413,1.57622 -1.6866028,4.0947 -0.03125,6.6211 0.4827021,0.73669 0.805968,1.33925 0.96875,1.76953 0.1541335,0.40742 0.1117858,0.59298 0.1230468,0.58789 -0.041471,0.007 -0.1262558,0.0149 -0.2753906,-0.0137 -0.3279183,-0.0628 -0.8653069,-0.26987 -1.5507812,-0.63672 C 1.6342771,127.34482 0.49277991,125.22411 0.5,122.88086 c 0.00722,-2.34325 1.2001657,-4.9172 3.640625,-6.9707 1.8152416,-1.52742 2.954652,-2.21883 4.1933594,-2.25977 z m 13.9765626,32.06055 c 0.05383,0.0415 0.08693,0.0611 0.150391,0.11328 0.326266,0.2681 0.76964,0.6698 1.289062,1.16797 1.038844,0.99633 2.383335,2.38134 3.773438,3.90234 4.022218,4.40094 9.749562,9.01254 15.318359,12.64063 5.568797,3.62808 10.927383,6.28114 14.4375,6.70312 1.276484,0.15346 2.247125,0.38843 2.802734,0.63672 0.277805,0.12415 0.444475,0.25566 0.496094,0.32031 0.05162,0.0647 0.03091,0.002 0.01953,0.0312 -0.173137,0.45119 -0.0047,0.94647 0.28711,1.30274 0.291833,0.35626 0.708825,0.65768 1.228515,0.95117 1.039381,0.58698 2.503702,1.12555 4.175781,1.58008 3.344159,0.90905 7.491319,1.47228 10.539063,1.11133 1.150725,-0.13629 2.033765,-0.23321 2.675781,-0.28126 0.25681,-0.0192 0.284606,-0.002 0.464844,-0.004 -0.08899,0.0707 -0.08609,0.0839 -0.195312,0.16406 -0.456555,0.33526 -0.804044,0.59499 -1.060547,0.86328 -0.128252,0.13415 -0.239628,0.27136 -0.3125,0.45703 -0.07287,0.18568 -0.08242,0.43729 0.002,0.63672 0.168741,0.39886 0.49227,0.56126 0.90039,0.76172 0.408121,0.20046 0.948087,0.4106 1.658204,0.68164 1.76881,0.67512 3.180338,0.90139 4.93164,0.22656 0.809195,-0.3118 1.726918,-0.84562 2.785156,-1.54101 -0.309307,0.29927 -0.602247,0.58902 -0.783203,0.82226 -0.112382,0.14486 -0.200693,0.27143 -0.265625,0.43164 -0.03247,0.0801 -0.06294,0.17235 -0.0625,0.29883 4.02e-4,0.11537 0.05983,0.26922 0.158203,0.38672 -0.04331,-0.15306 -0.123563,-0.31969 -0.25,-0.40039 -0.149949,-0.0957 -0.293374,-0.11696 -0.425781,-0.12305 -0.181959,-0.008 -0.265684,0.0313 -0.373047,0.0703 -0.107362,0.039 -0.220337,0.0906 -0.349609,0.15429 -0.258545,0.12744 -0.578994,0.30719 -0.964844,0.53711 -0.7717,0.45984 -1.799697,1.11963 -3.017578,1.93555 -2.435762,1.63185 -5.630372,3.88595 -9.003906,6.37109 -3.677794,2.70928 -6.893558,4.91119 -9.296875,6.39258 -1.201659,0.7407 -2.201569,1.301 -2.941407,1.65039 -0.369918,0.1747 -0.676482,0.29716 -0.894531,0.36133 -0.218049,0.0642 -0.356993,0.0397 -0.287109,0.0606 -0.953003,-0.28446 -5.622832,-1.47507 -10.50586,-2.6836 -10.253067,-2.53759 -15.202512,-5.7977 -20.101562,-13.21875 -1.763519,-2.67137 -3.939782,-7.16424 -4.769531,-9.83203 -0.770174,-2.47625 -1.595386,-9.14575 -2.03711,-15.09961 -0.220862,-2.97693 -0.350493,-5.7934 -0.349609,-7.84765 4.42e-4,-1.02713 0.03403,-1.86688 0.101562,-2.41992 0.01601,-0.13114 0.03394,-0.17822 0.05273,-0.27344 z m 127.339843,1.02148 c -0.0277,0.14396 -0.0496,0.31198 0.0156,0.41992 -0.0515,-0.0851 -0.0826,-0.24902 -0.0469,-0.36914 0.009,-0.0291 0.0202,-0.0285 0.0312,-0.0508 z M 149.25781,148.5 c -0.45206,0 -0.88077,0.30349 -1.13476,0.73828 -0.254,0.4348 -0.4254,1.01708 -0.58008,1.83203 -0.30936,1.62991 -0.52152,4.19935 -0.72852,8.1543 -0.32046,6.12289 -0.78857,11.54618 -1.32226,15.66601 -0.26685,2.05992 -0.5498,3.79414 -0.83789,5.11915 -0.2881,1.325 -0.60684,2.26198 -0.82618,2.61132 -0.042,0.0669 -0.0786,0.13179 -0.10937,0.2168 -0.0308,0.085 -0.0715,0.19931 -0.0215,0.38086 0.05,0.18155 0.25829,0.35329 0.40234,0.38867 0.14405,0.0354 0.23425,0.0165 0.3125,0 0.31301,-0.0658 0.56346,-0.21855 0.95508,-0.45508 0.78322,-0.47304 1.94281,-1.29485 3.33008,-2.37109 2.74769,-2.13166 5.88352,-4.42651 6.85156,-5.0293 0.4476,-0.27872 0.78208,-0.48947 1.01953,-0.65429 0.11872,-0.0824 0.21296,-0.15112 0.29883,-0.23047 0.0429,-0.0397 0.0855,-0.0796 0.13476,-0.1543 0.0493,-0.0747 0.13934,-0.22167 0.0762,-0.45117 -0.0632,-0.2295 -0.27083,-0.34144 -0.37304,-0.3711 -0.10221,-0.0297 -0.16475,-0.0284 -0.22461,-0.0273 -0.11972,0.002 -0.22678,0.0203 -0.36328,0.0449 -0.27302,0.0493 -0.64445,0.13484 -1.13672,0.25196 -0.57225,0.13614 -0.97236,0.005 -1.43555,-0.50782 -0.46319,-0.51274 -0.91351,-1.44719 -1.27344,-2.78906 -0.71984,-2.68374 -1.10351,-6.96203 -1.10351,-12.72851 0,-3.60203 -0.0714,-5.89069 -0.29492,-7.33985 -0.11177,-0.72458 -0.25285,-1.24589 -0.50196,-1.64453 -0.2491,-0.39864 -0.68995,-0.65039 -1.11328,-0.65039 z m 171.07422,0.5625 c 0.20678,-0.0312 0.31134,0.0114 0.29297,0 -0.0804,-0.0497 -0.0187,-0.025 0.0332,0.11133 0.0519,0.13637 0.10971,0.36193 0.16016,0.6582 0.10089,0.59255 0.17638,1.46949 0.2168,2.60742 0.0808,2.27588 0.0279,5.59914 -0.15821,9.93164 -0.58705,13.66449 -2.77153,23.77676 -6.82617,31.75391 -6.20756,12.21282 -18.29104,22.35544 -31.64648,26.55469 -3.44625,1.08357 -5.60619,1.64643 -9.74805,1.9414 -4.14186,0.29498 -10.25753,0.31235 -21.48633,0.27149 -13.18602,-0.048 -29.40418,-0.6649 -35.94922,-1.35938 -8.88182,-0.94243 -13.05697,-1.33225 -16.08398,-1.38867 0.14374,-0.0523 0.21349,-0.10167 0.3457,-0.18359 0.1331,-0.0825 0.29896,-0.19227 0.5,-0.32813 0.40209,-0.2717 0.94509,-0.65157 1.61328,-1.1289 1.33639,-0.95467 3.17564,-2.29872 5.38477,-3.92969 4.41827,-3.26194 10.31138,-7.66992 16.57422,-12.39453 12.52568,-9.44922 26.52965,-20.15631 33.19922,-25.47266 0.91595,-0.73011 1.423,-1.03081 1.79882,-1.23437 -0.0788,0.24076 -0.17332,0.47736 -0.16211,0.71875 0.0159,0.34306 0.2837,0.72808 0.61719,0.85742 0.66698,0.25867 1.46213,0.0995 2.89063,-0.15039 14.65526,-2.56388 42.99154,-15.96687 55.42187,-26.19336 0.74597,-0.61371 1.54259,-1.10199 2.19141,-1.38281 0.32441,-0.14042 0.61353,-0.22853 0.82031,-0.25977 z M 149.25781,149.5 c 0.13124,0 0.14657,-0.009 0.26563,0.18164 0.11905,0.19052 0.25949,0.60548 0.36133,1.26563 0.20366,1.32029 0.2832,3.59937 0.2832,7.1875 0,5.80997 0.37168,10.13412 1.13672,12.98632 0.38252,1.4261 0.85712,2.49168 1.49804,3.20118 0.52269,0.5786 1.21622,0.80727 1.93165,0.78906 -1.20972,0.78019 -4.00077,2.82528 -6.6504,4.88086 -1.31122,1.01725 -2.3781,1.76395 -3.0996,2.20898 0.22083,-0.56688 0.44552,-1.05428 0.64648,-1.97851 0.29756,-1.36853 0.58426,-3.12461 0.85352,-5.20313 0.5385,-4.15703 1.00662,-9.60146 1.32812,-15.74414 0.20629,-3.94135 0.4242,-6.49656 0.71289,-8.01758 0.14435,-0.76051 0.31298,-1.26039 0.46094,-1.51367 0.14796,-0.25328 0.18083,-0.24414 0.27148,-0.24414 z m -47.56445,17.99609 c -0.0876,-0.007 -0.14413,0.006 -0.1875,0.0176 -0.0867,0.0224 -0.13203,0.0468 -0.17969,0.0723 -0.0953,0.0509 -0.18341,0.11032 -0.29492,0.18945 -0.22303,0.15825 -0.52374,0.39089 -0.92187,0.70313 -0.49559,0.38866 -0.944779,0.78461 -1.281255,1.12109 -0.168238,0.16824 -0.307981,0.32078 -0.417969,0.46289 -0.05499,0.0711 -0.103515,0.1381 -0.146484,0.2168 -0.04297,0.0787 -0.0957,0.15977 -0.0957,0.34375 0,0.14445 0.01258,0.2851 0.07422,0.43554 0.06164,0.15045 0.20055,0.31683 0.384765,0.39258 0.368431,0.1515 0.64526,-0.008 0.884766,-0.16211 0.479012,-0.309 1.009031,-0.87781 1.677731,-1.73047 0.31224,-0.39813 0.54488,-0.69884 0.70313,-0.92187 0.0791,-0.11152 0.13856,-0.19961 0.18945,-0.29492 0.0254,-0.0477 0.0499,-0.0949 0.0723,-0.18164 0.0112,-0.0434 0.0244,-0.0979 0.0176,-0.18555 -0.007,-0.0876 -0.0462,-0.22394 -0.1504,-0.32813 -0.10418,-0.10418 -0.24048,-0.14351 -0.32812,-0.15039 z m 6,1 c -0.0876,-0.007 -0.14413,0.006 -0.1875,0.0176 -0.0867,0.0224 -0.13203,0.0468 -0.17969,0.0723 -0.0953,0.0509 -0.18341,0.11032 -0.29492,0.18945 -0.22303,0.15825 -0.52374,0.39089 -0.92187,0.70313 -0.49559,0.38866 -0.94478,0.78461 -1.28126,1.12109 -0.16823,0.16824 -0.30798,0.32078 -0.41796,0.46289 -0.055,0.0711 -0.10352,0.1381 -0.14649,0.2168 -0.043,0.0787 -0.0957,0.15977 -0.0957,0.34375 0,0.14445 0.0126,0.2851 0.0742,0.43554 0.0616,0.15045 0.20055,0.31683 0.38476,0.39258 0.36843,0.1515 0.64526,-0.008 0.88477,-0.16211 0.47901,-0.309 1.00904,-0.87781 1.67773,-1.73047 0.31224,-0.39813 0.54488,-0.69884 0.70313,-0.92187 0.0791,-0.11152 0.13856,-0.19961 0.18945,-0.29492 0.0254,-0.0477 0.0499,-0.0949 0.0723,-0.18164 0.0112,-0.0434 0.0244,-0.0979 0.0176,-0.18555 -0.007,-0.0876 -0.0462,-0.22394 -0.1504,-0.32813 -0.10418,-0.10418 -0.24048,-0.14351 -0.32812,-0.15039 z m -35.712891,0.082 -0.685547,0.27344 c -0.227167,0.0909 -0.398674,0.16748 -0.564453,0.32422 -0.08289,0.0784 -0.1818,0.19234 -0.210938,0.38477 -0.02914,0.19242 0.06929,0.40914 0.173828,0.51367 0.209071,0.20906 0.384489,0.22588 0.597657,0.26758 0.213167,0.0417 0.46599,0.0654 0.773437,0.0781 0.56819,0.0234 1.012539,-0.009 1.380859,-0.15625 0.184161,-0.0737 0.398836,-0.18144 0.503907,-0.46679 0.105071,-0.28536 -0.04282,-0.59751 -0.199219,-0.75391 v -0.002 c -0.312805,-0.31276 -0.720908,-0.40053 -1.144531,-0.41797 -0.202048,-0.008 -0.414451,0.0754 -0.625,0.10937 z m -8.189453,0.24805 c -0.13645,0.0357 -0.250273,0.0715 -0.357422,0.11914 -0.107149,0.0476 -0.227311,0.0736 -0.353516,0.29297 -0.0631,0.1097 -0.09401,0.305 -0.04297,0.45313 0.05104,0.14812 0.140046,0.22791 0.207032,0.27734 0.133972,0.0989 0.230622,0.11989 0.339843,0.14844 0.436886,0.11417 1.103667,0.15039 2.083985,0.15039 0.980318,0 1.647098,-0.0362 2.083984,-0.15039 0.109222,-0.0285 0.205872,-0.0496 0.339844,-0.14844 0.06699,-0.0494 0.155992,-0.12922 0.207031,-0.27734 0.05104,-0.14813 0.01818,-0.34343 -0.04492,-0.45313 -0.126205,-0.2194 -0.246367,-0.24534 -0.353515,-0.29297 -0.107149,-0.0476 -0.21902,-0.0835 -0.355469,-0.11914 -1.091592,-0.28525 -2.662315,-0.28525 -3.753906,0 z m 13.189453,0.75195 -0.685547,0.2754 c -0.227167,0.0909 -0.398674,0.16552 -0.564453,0.32226 -0.08289,0.0784 -0.1818,0.19234 -0.210938,0.38477 -0.02914,0.19242 0.06929,0.40914 0.173828,0.51367 0.209071,0.20906 0.384489,0.22588 0.597657,0.26758 0.213167,0.0417 0.46599,0.0654 0.773437,0.0781 0.56819,0.0234 1.012539,-0.009 1.380859,-0.15625 0.184161,-0.0737 0.398836,-0.18144 0.503907,-0.46679 0.105071,-0.28536 -0.04282,-0.59751 -0.199219,-0.75391 -0.312805,-0.31276 -0.720908,-0.40248 -1.144531,-0.41992 -0.201997,-0.008 -0.414505,0.0754 -0.625,0.10937 z m 4.371093,0.9375 c -0.224844,0.003 -0.421901,0.0145 -0.640624,0.15235 -0.109362,0.0689 -0.223226,0.19005 -0.277344,0.34375 -0.05412,0.1537 -0.04111,0.31309 -0.0039,0.43164 0.07441,0.2371 0.207895,0.37445 0.367187,0.52344 0.159292,0.14898 0.357124,0.29642 0.599609,0.45312 0.48603,0.3141 0.87414,0.55142 1.1875,0.71875 0.313361,0.16734 0.502249,0.29297 0.841797,0.29297 0.169774,0 0.472639,-0.13288 0.570313,-0.36133 0.09767,-0.22845 0.04946,-0.38277 0.01172,-0.51172 -0.07549,-0.25788 -0.213399,-0.49758 -0.414062,-0.82226 -0.464528,-0.75162 -1.356866,-1.23152 -2.242188,-1.22071 z m 22.341798,0.98047 c -0.0876,-0.007 -0.14413,0.006 -0.1875,0.0176 -0.0867,0.0224 -0.13203,0.0468 -0.17969,0.0723 -0.0953,0.0509 -0.18341,0.11032 -0.29492,0.18945 -0.22303,0.15825 -0.52374,0.39089 -0.92187,0.70313 -0.49559,0.38866 -0.94478,0.78461 -1.28126,1.12109 -0.16823,0.16824 -0.30798,0.32078 -0.41796,0.46289 -0.055,0.0711 -0.10352,0.1381 -0.14649,0.2168 -0.043,0.0787 -0.0957,0.15977 -0.0957,0.34375 0,0.14445 0.0126,0.2851 0.0742,0.43554 0.0616,0.15045 0.20055,0.31683 0.38476,0.39258 0.36843,0.1515 0.64526,-0.008 0.88477,-0.16211 0.47901,-0.309 1.00904,-0.87781 1.67773,-1.73047 0.31224,-0.39813 0.54488,-0.69884 0.70313,-0.92187 0.0791,-0.11152 0.13856,-0.19961 0.18945,-0.29492 0.0254,-0.0477 0.0499,-0.0949 0.0723,-0.18164 0.0112,-0.0434 0.0244,-0.0979 0.0176,-0.18555 -0.007,-0.0876 -0.0462,-0.22394 -0.1504,-0.32813 -0.10418,-0.10418 -0.24048,-0.14351 -0.32812,-0.15039 z m -34.837891,0.0977 c 2.228707,-6.8e-4 4.849812,0.29363 6.107422,0.78516 0.421294,0.16459 0.697803,0.28194 0.90039,0.38086 -0.23571,0.15313 -0.618498,0.36418 -1.138672,0.64257 -1.236167,0.66158 -2.087079,0.9577 -3.08789,0.95704 -0.996943,-6.7e-4 -2.197916,-0.3178 -4.03125,-0.98633 l -0.01563,-0.006 c -0.718579,-0.26245 -1.376126,-0.60222 -1.828125,-0.91797 -0.226,-0.15788 -0.400573,-0.31146 -0.5,-0.42578 -0.02024,-0.0233 -0.007,-0.003 -0.01953,-0.0215 0.147542,-0.0676 0.411677,-0.14868 0.757812,-0.21093 0.713523,-0.12834 1.741115,-0.19693 2.855469,-0.19727 z m 142.798831,2.21484 c -0.1755,-0.017 -0.26808,0.0186 -0.375,0.0527 -0.21384,0.0684 -0.44629,0.18183 -0.73242,0.33789 -0.57227,0.31211 -1.33264,0.79638 -2.16993,1.39258 -0.83728,0.59619 -1.59659,1.19399 -2.1582,1.6875 -0.28081,0.24675 -0.51168,0.46619 -0.68555,0.6582 -0.0869,0.096 -0.15976,0.18363 -0.22265,0.2793 -0.0629,0.0957 -0.14258,0.181 -0.14258,0.41992 0,0.11946 0.0583,0.29876 0.17773,0.4082 0.11947,0.10944 0.24624,0.13798 0.33399,0.14649 0.17549,0.017 0.27003,-0.0186 0.37695,-0.0527 0.21384,-0.0684 0.44629,-0.18183 0.73242,-0.33789 0.57227,-0.31211 1.33069,-0.79638 2.16797,-1.39258 0.83729,-0.59619 1.59854,-1.19399 2.16016,-1.6875 0.2808,-0.24675 0.50973,-0.46619 0.68359,-0.6582 0.0869,-0.096 0.15976,-0.18363 0.22266,-0.2793 0.0629,-0.0957 0.14453,-0.181 0.14453,-0.41992 0,-0.11946 -0.0583,-0.29876 -0.17774,-0.4082 -0.11946,-0.10944 -0.24819,-0.13798 -0.33593,-0.14649 z m -112.726566,1.48438 c -0.183754,-0.0137 -0.245837,0.0334 -0.310546,0.0625 -0.258838,0.11639 -0.464711,0.28936 -0.835938,0.5918 -0.371227,0.30243 -0.858345,0.72078 -1.466797,1.25976 -1.866744,1.65362 -8.404844,6.8099 -14.449219,11.38672 -3.025149,2.29065 -5.821097,4.41106 -7.890625,5.98242 -1.034763,0.78568 -1.887303,1.43462 -2.496093,1.89844 -0.60879,0.46382 -0.937836,0.71323 -1.042969,0.79883 -0.163096,0.13279 -0.323387,0.28996 -0.386719,0.55468 -0.06333,0.26473 0.05888,0.57167 0.22461,0.74219 0.33146,0.34106 0.787602,0.49577 1.527343,0.71094 1.479482,0.43034 4.084437,0.91929 8.332031,1.625 7.563758,1.25666 15.04145,2.71047 20.666018,3.9668 2.81228,0.62816 5.16111,1.20816 6.81836,1.68554 0.82862,0.23869 1.48609,0.45179 1.92773,0.62696 0.22082,0.0876 0.38874,0.16697 0.48438,0.22265 0.0956,0.0557 0.0896,0.13529 0.0195,-0.0469 0.16304,0.42359 0.60558,0.71351 1.03515,0.71875 0.42958,0.005 0.83837,-0.18076 1.23438,-0.48438 0.60924,-0.4671 5.87374,-4.40848 11.64844,-8.7207 6.28533,-4.69354 10.83692,-8.38861 13.07031,-10.53125 0.55835,-0.53566 0.97217,-0.97187 1.24609,-1.32813 0.13697,-0.17812 0.23979,-0.33094 0.3125,-0.50781 0.0364,-0.0884 0.0675,-0.18484 0.0703,-0.3125 0.003,-0.12765 -0.0396,-0.30322 -0.15235,-0.43164 -0.22555,-0.25683 -0.49019,-0.23616 -0.68164,-0.21289 -0.19144,0.0233 -0.38318,0.0806 -0.61523,0.16602 -0.46411,0.17082 -1.07556,0.46187 -1.87305,0.88867 -0.44452,0.2379 -1.60362,0.44487 -2.99219,0.49414 -1.38857,0.0493 -3.03248,-0.0212 -4.59765,-0.18164 -1.56518,-0.16046 -3.05744,-0.41159 -4.125,-0.70899 -0.53379,-0.1487 -0.96193,-0.31408 -1.21875,-0.45898 -0.12842,-0.0725 -0.21194,-0.14009 -0.24219,-0.17383 -0.0302,-0.0337 -0.002,-0.009 -0.002,0.0449 -2.9e-4,-0.26629 -0.15411,-0.50239 -0.32227,-0.64453 -0.16816,-0.14213 -0.35934,-0.23386 -0.58594,-0.3164 -0.45319,-0.16509 -1.05821,-0.2833 -1.84961,-0.38086 -1.42137,-0.17524 -3.64567,-0.24498 -6.27734,-0.26758 1.2925,-0.2628 2.52828,-0.66279 3.69726,-1.32813 0.86311,-0.49124 1.64719,-1.0049 2.23047,-1.45117 0.29165,-0.22313 0.53179,-0.42673 0.7168,-0.61719 0.0925,-0.0952 0.17211,-0.18589 0.24023,-0.28906 0.0679,-0.10275 0.14398,-0.21592 0.14649,-0.42773 0.003,-0.27712 -0.16212,-0.4909 -0.31445,-0.61719 -0.15234,-0.12629 -0.3196,-0.20917 -0.51368,-0.28711 -0.38815,-0.15587 -0.88691,-0.2773 -1.48828,-0.38672 -1.20273,-0.21884 -2.80606,-0.37457 -4.51367,-0.45703 -3.41521,-0.16491 -7.16284,-0.0759 -8.99219,0.53516 -1.16815,0.39021 -2.10683,0.75273 -2.82812,1.0957 -0.72129,0.34297 -1.2247,0.6453 -1.548829,1.03125 -0.162065,0.19297 -0.290876,0.43514 -0.285157,0.7168 0.0057,0.28165 0.161487,0.53535 0.349606,0.70312 0.37625,0.33554 0.90075,0.50255 1.64063,0.66211 0.85134,0.1836 1.85206,0.39676 2.83984,0.60742 -1.36483,-0.11427 -3.42738,-0.10226 -4.4414,-0.26953 -1.409999,-0.23258 -2.468478,-0.52114 -3.080082,-0.8125 -0.305802,-0.14567 -0.49034,-0.29519 -0.558594,-0.38281 -0.06825,-0.0876 -0.058,-0.0643 -0.03906,-0.12109 -0.02293,0.0688 0.102131,-0.13806 0.367187,-0.3418 0.265057,-0.20374 0.65019,-0.45169 1.117188,-0.71094 0.933996,-0.5185 2.193703,-1.09285 3.529293,-1.58594 1.14863,-0.42406 1.93851,-0.74374 2.41797,-0.98046 0.23973,-0.11837 0.38011,-0.16267 0.5625,-0.36915 0.0456,-0.0516 0.10614,-0.12176 0.13672,-0.26757 0.0306,-0.14582 -0.0342,-0.37419 -0.14062,-0.48243 -0.21286,-0.21646 -0.33565,-0.1714 -0.4375,-0.17773 -0.40741,-0.0253 -0.91643,0.0812 -1.80664,0.27539 -0.89022,0.19421 -2.09048,0.49035 -3.595708,0.89063 l -0.998046,0.26562 0.992187,-1.20703 c 0.349867,-0.4256 0.583304,-0.72549 0.726563,-0.95703 0.03581,-0.0579 0.06532,-0.11157 0.09375,-0.17578 0.02843,-0.0642 0.07155,-0.12729 0.06055,-0.30469 -0.0055,-0.0887 -0.0411,-0.22728 -0.146484,-0.33594 -0.105386,-0.10865 -0.247967,-0.15135 -0.339844,-0.1582 z m 59.017576,0.0684 -3.23828,1.61328 c -1.85292,0.92443 -4.76557,2.9231 -6.60351,4.51953 -1.76823,1.53586 -4.2382,3.33224 -5.32813,3.9043 -0.40733,0.21378 -1.12852,0.6976 -2.17383,1.42968 -1.0453,0.73209 -2.38622,1.69914 -3.91992,2.82032 -3.06739,2.24235 -6.90305,5.10391 -10.6543,7.9414 -3.75124,2.8375 -7.41834,5.65047 -10.15039,7.79493 -1.36602,1.07222 -2.49753,1.9762 -3.29297,2.63671 -0.39771,0.33026 -0.7095,0.5988 -0.93164,0.80274 -0.11107,0.10197 -0.19933,0.18682 -0.27148,0.26562 -0.0361,0.0394 -0.0682,0.0761 -0.10352,0.12696 -0.0353,0.0508 -0.10937,0.0805 -0.10937,0.33008 0,0.2111 0.0796,0.4631 0.25976,0.6289 0.18015,0.1658 0.40292,0.22165 0.60352,0.23242 0.40121,0.0216 0.81315,-0.10008 1.33984,-0.30273 1.0534,-0.4053 2.5175,-1.19601 4.37891,-2.3418 3.72283,-2.29158 9.00087,-6.00058 15.30469,-10.79883 L 144.17773,188.5 h 7.11329 c 3.84536,0 7.2457,-0.41467 9.45117,-1.03906 1.10273,-0.3122 1.90526,-0.63666 2.38867,-1.15625 0.2417,-0.2598 0.40407,-0.65136 0.30664,-1.02539 -0.0974,-0.37404 -0.37123,-0.63637 -0.72266,-0.85938 -0.45477,-0.2886 -1.08984,-0.48755 -1.81836,-0.64453 -0.72851,-0.15698 -1.53853,-0.25552 -2.28515,-0.25977 -1.26628,-0.008 -3.23356,-0.62635 -4.0918,-1.2539 -0.42554,-0.31117 -0.72175,-0.55495 -0.85547,-0.71875 -0.13372,-0.16381 -0.1301,-0.16942 -0.0977,-0.29492 0.0649,-0.251 0.70077,-1.01485 2.0625,-2.31836 l 2.88476,-2.75977 z m -50.15429,0.46484 c -0.13645,0.0357 -0.25028,0.0715 -0.35743,0.11914 -0.10715,0.0476 -0.22731,0.0736 -0.35351,0.29297 -0.0631,0.1097 -0.094,0.305 -0.043,0.45313 0.051,0.14812 0.14004,0.22791 0.20703,0.27734 0.13397,0.0989 0.23062,0.11989 0.33984,0.14844 0.43689,0.11417 1.10367,0.15039 2.08399,0.15039 0.98032,0 1.6471,-0.0362 2.08398,-0.15039 0.10922,-0.0285 0.20587,-0.0496 0.33985,-0.14844 0.067,-0.0494 0.15599,-0.12922 0.20703,-0.27734 0.051,-0.14813 0.0182,-0.34343 -0.0449,-0.45313 -0.12621,-0.2194 -0.24637,-0.24534 -0.35352,-0.29297 -0.10715,-0.0476 -0.21902,-0.0835 -0.35547,-0.11914 -1.09159,-0.28525 -2.66231,-0.28525 -3.7539,0 z m 95.77539,0.17969 c 0.12115,0.0159 0.18063,0.007 0.42773,0.10156 0.28768,0.11039 0.42107,0.22548 0.42969,0.23828 0.009,0.0128 0.032,-0.0411 -0.0488,0.12305 -0.16167,0.32828 -0.88952,1.09781 -2.22461,2.24023 -0.82259,0.70388 -1.43635,1.32395 -1.85351,1.8379 -0.20859,0.25697 -0.36776,0.48636 -0.48243,0.70117 -0.0588,0.11019 -0.0596,0.24014 -0.0937,0.35351 -0.0206,-0.008 -0.0362,-0.048 -0.0547,-0.0527 -0.14496,-0.0373 -0.25214,-0.0294 -0.36329,-0.0176 -0.22229,0.0237 -0.46326,0.0862 -0.77539,0.17773 -0.56545,0.16575 -1.08496,0.57445 -1.57422,1.0918 -0.48925,0.51736 -0.93223,1.15173 -1.23242,1.81641 -0.48069,1.06437 -1.73309,2.25718 -2.45508,2.48633 -0.24055,0.0763 -0.4522,0.20495 -0.79492,0.4121 -0.34271,0.20716 -0.77899,0.48807 -1.30078,0.83594 -1.04358,0.69575 -2.42974,1.66038 -4.06445,2.82617 -3.26943,2.33159 -7.5307,5.46578 -12,8.84571 -7.90805,5.9805 -14.20641,10.45781 -18.37891,13.10351 -2.08625,1.32286 -3.65557,2.18844 -4.56445,2.54102 -0.18975,0.0736 -0.16458,0.0546 -0.28711,0.0781 0.0357,-0.043 0.0137,-0.0177 0.0606,-0.0645 0.18864,-0.18867 0.46614,-0.44361 0.8164,-0.75 0.70052,-0.61278 1.69556,-1.43496 2.91211,-2.41016 2.43311,-1.95039 5.75273,-4.51531 9.41016,-7.27734 7.31485,-5.52406 15.98595,-11.84596 21.63476,-15.66016 1.77472,-1.19832 3.32399,-2.35026 4.4043,-3.2539 0.54016,-0.45182 0.96183,-0.83787 1.25,-1.1582 0.14408,-0.16017 0.25628,-0.2968 0.3418,-0.46094 0.0428,-0.0821 0.0832,-0.17197 0.0957,-0.30664 0.003,-0.0312 -0.0352,-0.0738 -0.0391,-0.11133 0.10231,0.0659 0.20608,0.14308 0.30273,0.15625 0.28699,0.0391 0.51628,-0.0342 0.79493,-0.13672 1.11459,-0.41009 2.96163,-1.61166 5.43554,-3.53906 1.29674,-1.01028 2.41464,-2.02555 3.1875,-2.86914 0.38643,-0.4218 0.68664,-0.79694 0.88867,-1.13477 0.10102,-0.16891 0.17825,-0.3265 0.22461,-0.50391 0.0189,-0.0722 -0.0309,-0.17323 -0.0293,-0.25976 z M 94.453125,176.5918 c -1.112296,0.96968 -2.074772,1.77352 -3.03125,2.62695 -7.417785,6.61857 -21.629456,17.20599 -26.568359,19.83203 -2.671373,1.42038 -4.072374,2.13584 -4.617188,2.29102 -0.04086,0.0116 -0.02962,0.006 -0.05859,0.0117 3.03e-4,-0.0453 -0.0098,-0.084 -0.0098,-0.31836 0,0.038 0.132617,-0.31957 0.480469,-0.66211 0.347851,-0.34255 0.852238,-0.71641 1.40039,-1.00977 0.676687,-0.36215 2.257221,-1.43477 4.394531,-2.93945 2.13731,-1.50469 4.788056,-3.41977 7.4375,-5.38477 5.290283,-3.92359 10.757336,-7.91398 12.087891,-8.82422 0.70814,-0.48443 1.22293,-0.91963 1.53125,-1.32226 0.15416,-0.20132 0.31133,-0.38847 0.271484,-0.74219 -0.0014,-0.0125 -0.01904,-0.0205 -0.02148,-0.0332 0.176473,0.16982 0.379077,0.19429 0.529297,0.1914 0.153026,-0.003 0.29019,-0.0323 0.4375,-0.0762 0.29462,-0.0878 0.627758,-0.23835 1.011719,-0.43945 0.767921,-0.40221 1.72292,-1.01456 2.710937,-1.75391 0.535638,-0.40082 1.325906,-0.94604 2.013672,-1.44726 z m 65.029295,0.004 c -0.13883,0.0122 -0.17463,0.0434 -0.21094,0.0625 -0.0363,0.0191 -0.0586,0.0367 -0.082,0.0527 -0.0468,0.0322 -0.0893,0.065 -0.13867,0.10547 -0.0988,0.0809 -0.22369,0.18898 -0.38281,0.33203 -0.31825,0.28609 -0.77183,0.70667 -1.37695,1.26758 -1.05572,0.97857 -1.6713,1.56161 -1.88086,2.26562 -0.10479,0.35201 -0.0337,0.76006 0.16796,1.04883 0.2017,0.28877 0.48117,0.49255 0.82227,0.70898 l 0.76758,0.48828 v -0.23242 c 0.42578,0.16312 0.80664,0.35092 1.34961,0.45117 0.85168,0.15727 1.79902,0.23628 2.66992,0.20118 0.66637,-0.0268 1.17067,-0.0506 1.5293,-0.0781 0.17931,-0.0138 0.32136,-0.0275 0.4414,-0.0469 0.06,-0.01 0.11318,-0.0202 0.17578,-0.0391 0.0626,-0.0188 0.13615,-0.0154 0.2754,-0.16406 0.0696,-0.0743 0.15386,-0.23298 0.14062,-0.39648 -0.0132,-0.16351 -0.0967,-0.26782 -0.15234,-0.32422 -0.11136,-0.11281 -0.17124,-0.12351 -0.22852,-0.14649 -0.11456,-0.046 -0.21976,-0.0716 -0.36328,-0.10351 -0.28705,-0.0638 -0.69954,-0.13469 -1.25586,-0.22656 -1.27077,-0.20986 -2.2401,-0.38934 -2.92383,-0.56836 -0.68372,-0.17903 -1.06793,-0.38341 -1.16992,-0.49024 -0.051,-0.0534 -0.0499,-0.0605 -0.0527,-0.0996 -0.003,-0.0391 0.008,-0.12931 0.0723,-0.27344 0.12877,-0.28825 0.46158,-0.74919 0.95313,-1.34179 0.45434,-0.54775 0.79441,-0.95919 1.01757,-1.24024 0.11159,-0.14052 0.19194,-0.24415 0.25391,-0.33593 0.031,-0.0459 0.0568,-0.0766 0.0937,-0.16797 0.009,-0.0228 0.02,-0.0519 0.0293,-0.0957 0.005,-0.0219 0.01,-0.0466 0.0117,-0.0801 0.002,-0.0334 -0.01,-0.12403 -0.01,-0.125 -1.9e-4,-9.8e-4 -0.0679,-0.17508 -0.0684,-0.17579 -4.5e-4,-7e-4 -0.1614,-0.15972 -0.16211,-0.16015 -7e-4,-4.4e-4 -0.18068,-0.0662 -0.18164,-0.0664 -9.6e-4,-1.6e-4 -0.0961,-0.009 -0.13086,-0.006 z m -39.93945,0.0156 c -0.5819,-0.005 -1.18875,0.0693 -1.73242,0.21094 l -0.37305,0.0976 v 0.0723 c -0.0927,0.0396 -0.19674,0.0383 -0.29883,0.13672 -0.0574,0.0553 -0.12577,0.13704 -0.16211,0.26757 -0.0363,0.13053 -0.0125,0.30196 0.0469,0.41211 0.11882,0.22031 0.2535,0.25679 0.35742,0.29883 0.41567,0.16817 0.93431,0.1868 1.78125,0.19727 0.84694,0.0105 1.46197,-0.0255 1.88867,-0.13672 0.10668,-0.0278 0.20278,-0.0563 0.3125,-0.12109 0.10972,-0.0648 0.2885,-0.20094 0.3125,-0.4668 0.024,-0.26587 -0.13626,-0.44416 -0.24023,-0.52735 -0.10397,-0.0832 -0.19996,-0.12713 -0.31055,-0.17187 -0.44237,-0.17901 -1.00013,-0.2645 -1.58203,-0.26953 z m 127.15039,0.88476 c -0.0876,-0.007 -0.14413,0.006 -0.1875,0.0176 -0.0867,0.0224 -0.13203,0.0468 -0.17969,0.0723 -0.0953,0.0509 -0.18341,0.11032 -0.29492,0.18945 -0.22303,0.15825 -0.52374,0.39089 -0.92187,0.70313 -0.49559,0.38866 -0.94478,0.78461 -1.28126,1.12109 -0.16823,0.16824 -0.30798,0.32078 -0.41796,0.46289 -0.055,0.0711 -0.10352,0.1381 -0.14649,0.2168 -0.043,0.0787 -0.0957,0.15977 -0.0957,0.34375 0,0.14445 0.0126,0.2851 0.0742,0.43554 0.0616,0.15045 0.20055,0.31683 0.38476,0.39258 0.36843,0.1515 0.64526,-0.008 0.88477,-0.16211 0.47901,-0.309 1.00904,-0.87781 1.67773,-1.73047 0.31224,-0.39813 0.54488,-0.69884 0.70313,-0.92187 0.0791,-0.11152 0.13856,-0.19961 0.18945,-0.29492 0.0255,-0.0477 0.0499,-0.0949 0.0723,-0.18164 0.0112,-0.0434 0.0245,-0.0979 0.0176,-0.18555 -0.007,-0.0876 -0.0462,-0.22394 -0.1504,-0.32813 -0.10418,-0.10418 -0.24048,-0.14351 -0.32812,-0.15039 z m -122.75,0.0996 c -0.11368,0.008 -0.2629,0.0656 -0.35938,0.16211 -0.19296,0.19296 -0.1787,0.37455 -0.17382,0.49414 0.005,0.1196 0.0268,0.22111 0.0566,0.33789 0.0598,0.23358 0.16027,0.51699 0.29882,0.88086 0.20604,0.54109 0.4534,0.97521 0.75977,1.2793 0.15319,0.15205 0.32473,0.28138 0.5625,0.33789 0.23777,0.0565 0.55665,-0.0234 0.74023,-0.20703 0.18359,-0.18359 0.25914,-0.43393 0.26563,-0.6543 0.006,-0.22036 -0.0423,-0.42778 -0.12109,-0.63476 -0.15764,-0.41398 -0.44266,-0.83029 -0.82813,-1.21289 -0.25381,-0.25192 -0.45228,-0.43874 -0.63476,-0.57422 -0.0913,-0.0677 -0.17327,-0.12534 -0.30469,-0.17188 -0.0657,-0.0233 -0.14804,-0.0453 -0.26172,-0.0371 z m 31.49609,0.13086 -0.50195,0.48047 c -1.36927,1.31074 -2.12593,1.96355 -2.33984,2.79102 -0.10696,0.41373 0.0345,0.86352 0.29101,1.17773 0.2565,0.31421 0.60234,0.57181 1.04102,0.89258 1.14988,0.84081 3.1273,1.438 4.67578,1.44726 0.66076,0.004 1.41759,0.0955 2.08008,0.23829 0.66248,0.14275 1.24385,0.35217 1.49218,0.50976 0.2361,0.14983 0.2923,0.26501 0.29297,0.26758 6.7e-4,0.003 0.0285,-0.0144 -0.0703,0.0918 -0.19758,0.21237 -0.9021,0.58603 -1.92969,0.87695 -2.05517,0.58184 -5.40726,1 -9.17968,1 h -7.45118 l -11.39062,8.66992 c -6.28732,4.78569 -11.55088,8.48203 -15.22266,10.74219 -1.83589,1.13008 -3.2822,1.90288 -4.21484,2.26172 -0.16691,0.0642 -0.20062,0.0475 -0.33203,0.084 0.16954,-0.14727 0.3057,-0.26978 0.54297,-0.46679 0.78198,-0.64935 1.91131,-1.54998 3.27343,-2.61914 2.72424,-2.13833 6.38703,-4.94837 10.13477,-7.78321 3.74774,-2.83484 7.57992,-5.69613 10.64062,-7.93359 1.53036,-1.11873 2.86832,-2.08109 3.9043,-2.80664 1.03598,-0.72555 1.79997,-1.22642 2.06445,-1.36524 1.28655,-0.67524 3.6979,-2.45094 5.51954,-4.0332 1.75189,-1.52169 4.68729,-3.52911 6.39453,-4.38086 z m 95.99219,0.0977 c -2.23564,2.01265 -6.3437,5.36092 -11.96289,9.60742 -14.11152,10.66428 -24.73137,18.77626 -31.61719,24.15039 -3.4429,2.68707 -5.95184,4.6891 -7.5039,5.98828 -0.77604,0.64959 -1.30656,1.11788 -1.61914,1.4336 -0.0781,0.0789 -0.14307,0.14652 -0.19922,0.21484 -0.0562,0.0683 -0.10775,0.11732 -0.16016,0.25977 -0.0262,0.0712 -0.0703,0.19145 -0.004,0.375 0.0494,0.13655 0.18308,0.19506 0.29493,0.25 -0.18155,-0.002 -0.83163,-0.0877 -1,-0.0859 -2.95689,0.0302 -4.042,0.69178 -5.6543,1.83984 -0.27384,0.19499 -0.439,0.29513 -0.6582,0.44336 0.75886,-0.89417 2.36434,-2.38346 6.41211,-5.52148 4.88461,-3.78679 12.90776,-9.74656 25.93945,-19.33008 5.01762,-3.68996 9.52762,-7.09412 12.75781,-9.60938 1.6151,-1.25762 2.9109,-2.29155 3.79297,-3.0332 0.44103,-0.37082 0.77607,-0.66635 1.00781,-0.89062 0.11588,-0.11214 0.20573,-0.20439 0.28125,-0.30079 0.0378,-0.0482 0.0736,-0.0919 0.11328,-0.18359 0.0135,-0.0312 0.0216,-0.0891 0.0312,-0.14258 0.009,0.008 0.005,0.0243 0.0137,0.0312 0.42557,0.32391 0.87088,0.23099 1.36523,0.10742 0.98869,-0.24713 2.27568,-0.92754 3.37695,-1.92382 1.08972,-0.98584 3.37472,-2.67411 4.99219,-3.67969 z m -155.419921,0.89258 -1.216797,1.48047 4.001953,-1.06446 c 0.466394,-0.12402 0.700988,-0.17165 1.107422,-0.27539 -0.895352,0.37614 -1.834904,0.75492 -2.515625,1.13281 -0.496204,0.27547 -0.91587,0.54019 -1.242188,0.79102 -0.326317,0.25083 -0.578849,0.43969 -0.705078,0.81836 -0.117451,0.35235 -0.02387,0.76886 0.197266,1.05273 0.221138,0.28388 0.530705,0.48544 0.917969,0.66993 0.774527,0.36896 1.889473,0.65594 3.347656,0.89648 2.916363,0.48107 7.193543,0.75048 12.511723,0.76172 3.06561,0.006 5.36698,0.10558 6.87109,0.29101 0.75205,0.0927 1.30688,0.21154 1.62695,0.32813 0.16004,0.0583 0.25973,0.11913 0.28516,0.14062 0.0254,0.0215 -0.0331,-0.0392 -0.0332,-0.11914 3.1e-4,0.2502 0.11886,0.46806 0.25781,0.62305 0.13895,0.15499 0.30437,0.26989 0.49414,0.37695 0.37954,0.21414 0.86466,0.38957 1.44336,0.55079 1.1574,0.32242 2.68335,0.57562 4.28906,0.74023 1.60571,0.16461 3.28614,0.23895 4.73633,0.1875 1.45019,-0.0515 2.64561,-0.19171 3.42969,-0.61133 0.52766,-0.2824 0.83904,-0.41152 1.1875,-0.5664 -0.20665,0.22456 -0.34792,0.40154 -0.65821,0.69921 -2.15723,2.06959 -6.70763,5.77185 -12.97656,10.45313 -5.77531,4.31268 -10.99942,8.22343 -11.6582,8.72851 -0.27462,0.21055 -0.51297,0.2786 -0.61524,0.27735 -0.10226,-0.001 -0.0743,0.0231 -0.11328,-0.0781 -0.11575,-0.30069 -0.28069,-0.35891 -0.44922,-0.45703 -0.16852,-0.0981 -0.37101,-0.19065 -0.61914,-0.28906 -0.49625,-0.19683 -1.17355,-0.41451 -2.01953,-0.6582 -1.69196,-0.48738 -4.05471,-1.07035 -6.87891,-1.70118 -5.648382,-1.26165 -13.139059,-2.71692 -20.720698,-3.97656 -4.238496,-0.70419 -6.844986,-1.20115 -8.214844,-1.59961 -0.559667,-0.16279 -0.764849,-0.29075 -0.890625,-0.36523 0.0888,-0.0687 0.359905,-0.27823 0.894531,-0.68555 0.608008,-0.46322 1.459633,-1.111 2.494141,-1.89648 2.069015,-1.57097 4.865774,-3.692 7.890625,-5.98243 5.652176,-4.27984 11.170549,-8.64955 13.542969,-10.67382 z m 17.271481,0.43359 c 1.67701,0.081 3.25336,0.2359 4.38282,0.44141 0.56472,0.10275 1.02126,0.22018 1.29492,0.33008 0.0316,0.0127 0.0303,0.019 0.0566,0.0312 -0.13043,0.12991 -0.31948,0.29591 -0.56836,0.48633 -0.53371,0.40834 -1.28921,0.9057 -2.11719,1.37696 -2.83609,1.61417 -5.81752,1.93632 -10.06055,1.03906 -1.09871,-0.23234 -3.07641,-0.65562 -4.39257,-0.93945 -0.66622,-0.14368 -1.08049,-0.33873 -1.18164,-0.42774 0.002,-0.002 -0.009,0.0146 0.0312,-0.0332 0.13134,-0.15639 0.54948,-0.45409 1.21289,-0.76953 0.66341,-0.31545 1.57088,-0.66865 2.71484,-1.05078 1.4321,-0.47839 5.27293,-0.64634 8.62695,-0.48438 z m 43.33399,1.53516 c 4.9e-4,0.0178 -0.013,0.0329 -0.0117,0.0508 0.0189,0.26491 0.14321,0.52711 0.32617,0.71875 0.21401,0.22416 0.6248,0.31608 0.96094,0.44726 -0.34247,-0.10714 -0.79335,-0.20278 -0.95703,-0.30664 -0.29507,-0.18722 -0.47365,-0.34664 -0.53711,-0.4375 -0.0635,-0.0908 -0.0651,-0.0777 -0.0312,-0.1914 0.0105,-0.0353 0.21819,-0.22673 0.25,-0.28125 z m 84.83789,1.72656 c -0.0148,0.0606 -0.0631,0.11573 -0.0684,0.17969 -0.006,0.0772 0.0758,0.13879 0.0937,0.2207 -0.12704,-0.0962 -0.28224,-0.16455 -0.41211,-0.16602 -0.15087,-0.002 -0.27755,0.0314 -0.41211,0.0781 -0.26912,0.0936 -0.5819,0.25632 -1.0293,0.52539 -0.89479,0.53814 -2.30715,1.50239 -4.60156,3.14844 -4.58882,3.29209 -12.68897,9.30518 -27,19.97461 -5.49562,4.0972 -10.11034,7.37451 -13.46875,9.58789 -1.6792,1.10668 -3.04509,1.94753 -4.03906,2.48633 -0.49699,0.26939 -0.90211,0.46326 -1.19141,0.57421 -0.2893,0.11096 -0.49642,0.0865 -0.36914,0.1211 -1.72713,-0.46978 -7.06505,-1.38317 -22.4707,-3.87891 l -6.60938,-1.07031 15.83008,-11.99414 c 13.38207,-10.13842 17.59126,-12.77073 20.82422,-13.28711 0.9869,-0.15763 1.74502,-0.28893 2.32422,-0.42578 0.5792,-0.13686 0.98196,-0.25288 1.30273,-0.52735 0.16039,-0.13723 0.29517,-0.34716 0.32813,-0.57421 0.033,-0.22706 -0.0251,-0.43222 -0.10742,-0.60938 -0.1646,-0.35431 -0.43585,-0.66397 -0.79297,-1.05859 -0.58336,-0.64461 -0.81397,-1.06471 -0.83789,-1.31641 -0.0239,-0.25169 0.0907,-0.5123 0.54687,-0.99609 0.25397,-0.26937 0.44531,-0.48502 0.58594,-0.67774 0.0651,-0.0892 0.11798,-0.17419 0.16406,-0.27344 0.0778,0.0312 0.15685,0.0863 0.22656,0.0918 0.15517,0.0122 0.28885,-0.0512 0.42579,-0.0918 -0.23848,0.3005 -0.56148,0.60801 -0.72657,0.89063 -0.18095,0.30978 -0.31744,0.60227 -0.39062,0.88867 -0.0732,0.2864 -0.10383,0.59968 0.082,0.90039 0.32654,0.52836 0.91994,0.82286 1.68945,1.0625 0.76952,0.23965 1.74395,0.405 2.90625,0.51563 2.32461,0.22125 5.39316,0.21284 8.90625,0 7.02618,-0.42569 15.82338,-1.67059 23.84375,-3.58399 1.55802,-0.37169 2.91646,-0.61184 3.81836,-0.69922 0.30251,-0.0293 0.45092,-0.0189 0.62891,-0.0156 z m -75.10352,0.10351 c -0.22484,0.003 -0.4219,0.0145 -0.64062,0.15235 -0.10936,0.0689 -0.22323,0.19005 -0.27735,0.34375 -0.0541,0.1537 -0.0411,0.31309 -0.004,0.43164 0.0744,0.2371 0.20789,0.37445 0.36719,0.52344 0.15929,0.14898 0.35712,0.29642 0.5996,0.45312 0.48603,0.3141 0.87414,0.55142 1.1875,0.71875 0.31337,0.16734 0.50225,0.29297 0.8418,0.29297 0.16978,0 0.47264,-0.13288 0.57031,-0.36133 0.0977,-0.22845 0.0495,-0.38277 0.0117,-0.51172 -0.0755,-0.25788 -0.2134,-0.49758 -0.41406,-0.82226 -0.46453,-0.75162 -1.35687,-1.23152 -2.24219,-1.22071 z m 26.39258,0.39063 c -0.005,0.008 -0.0148,0.0211 -0.0195,0.0293 -0.15948,0.27455 -0.27372,0.4949 -0.2793,0.79297 -8.1e-4,0.0434 0.0408,0.0941 0.0488,0.14257 -0.17357,-0.11617 -0.36187,-0.20708 -0.54297,-0.21093 -0.11127,-0.002 -0.22212,0.0368 -0.33203,0.0566 0.21549,-0.15902 0.35715,-0.29074 0.58594,-0.45118 0.2206,-0.15469 0.35192,-0.23345 0.53906,-0.35937 z m -23.98828,2.63086 c -0.2407,-0.0566 -0.37406,0.0141 -0.49219,0.0684 -0.11813,0.0543 -0.22722,0.12381 -0.35156,0.20898 -0.24869,0.17035 -0.5529,0.41136 -0.94727,0.73243 -0.39983,0.32551 -1.72348,0.77973 -3.78711,1.10937 -2.06362,0.32964 -4.88888,0.59242 -8.44335,0.7793 l -10.91211,0.57226 -11.875,8.92188 c -3.23746,2.43237 -6.12158,4.70223 -8.16797,6.40429 -1.0232,0.85104 -1.83607,1.55914 -2.38672,2.08399 -0.27533,0.26242 -0.48324,0.47489 -0.63281,0.6582 -0.0748,0.0917 -0.1346,0.17181 -0.18946,0.28516 -0.0274,0.0567 -0.0585,0.12232 -0.0684,0.23437 -0.01,0.11206 0.0272,0.30452 0.15625,0.4336 0.1464,0.14639 0.19992,0.14032 0.28516,0.17578 0.0852,0.0354 0.18207,0.0694 0.29883,0.10742 0.23351,0.0759 0.5431,0.16619 0.92969,0.26953 0.77316,0.20668 1.84793,0.46785 3.15039,0.76953 2.60491,0.60336 6.12136,1.36272 9.92578,2.13477 3.80108,0.77138 7.33981,1.48527 9.98047,2.01172 1.32033,0.26322 2.417,0.48027 3.20898,0.63476 0.79198,0.1545 1.21978,0.23859 1.4082,0.26367 0.17194,0.0229 0.22521,-0.0121 0.28321,-0.0312 0.058,-0.0191 0.10627,-0.0399 0.1582,-0.0644 0.10385,-0.0492 0.21934,-0.11337 0.35937,-0.19531 0.28007,-0.16389 0.65199,-0.39895 1.11329,-0.70313 0.92259,-0.60835 2.19903,-1.49003 3.74218,-2.58007 3.08632,-2.18009 7.23586,-5.19768 11.70899,-8.5293 7.63632,-5.6876 12.69228,-9.51413 15.43164,-11.68945 1.36968,-1.08766 2.11749,-1.69893 2.45117,-2.09961 0.0417,-0.0501 0.0784,-0.0977 0.11914,-0.17579 0.0407,-0.0781 0.14908,-0.23307 0.0137,-0.5039 -0.0677,-0.13542 -0.20668,-0.22936 -0.30468,-0.26172 -0.098,-0.0324 -0.16335,-0.0307 -0.21485,-0.0273 -0.103,0.007 -0.15961,0.026 -0.2207,0.0469 -0.24437,0.0834 -0.52266,0.23435 -0.95117,0.47852 -0.22782,0.12981 -1.18874,0.3848 -2.39258,0.55859 -1.20385,0.17379 -2.7007,0.31452 -4.22266,0.40625 -1.52196,0.0917 -3.07194,0.13365 -4.38672,0.11133 -1.31477,-0.0223 -2.41521,-0.11911 -2.93359,-0.25977 -0.47272,-0.12827 -0.68986,-0.31206 -0.78906,-0.51367 -0.0992,-0.2016 -0.11534,-0.50819 0.0644,-0.98828 0.14355,-0.38332 0.24529,-0.67508 0.30078,-0.92578 0.0277,-0.12535 0.052,-0.236 0.0293,-0.40039 -0.0113,-0.0822 -0.0376,-0.18565 -0.11524,-0.29102 -0.0776,-0.10537 -0.21363,-0.19243 -0.33398,-0.2207 z m -0.81836,1.52148 c -0.22631,0.62389 -0.27777,1.23321 -0.0254,1.7461 0.25746,0.52321 0.78123,0.8622 1.42578,1.03711 0.72283,0.19613 1.83036,0.27201 3.17969,0.29492 1.34933,0.0229 2.91868,-0.0202 4.46289,-0.11328 1.54421,-0.0931 3.06112,-0.23454 4.30469,-0.41406 0.62928,-0.0908 0.92683,-0.23618 1.38867,-0.34376 -0.29463,0.24383 -0.26738,0.24899 -0.65235,0.55469 -2.71727,2.15779 -7.77462,5.98633 -15.4082,11.67188 -4.46748,3.32741 -8.61327,6.34074 -11.68945,8.51367 -1.53809,1.08646 -2.80853,1.96292 -3.71485,2.56055 -0.45315,0.29881 -0.81678,0.52856 -1.06836,0.67578 -0.11794,0.069 -0.20683,0.11595 -0.26562,0.14453 -0.0882,-0.0154 -0.51705,-0.0941 -1.24609,-0.23633 -0.7896,-0.15403 -1.88556,-0.36975 -3.20508,-0.63281 -2.63904,-0.52613 -6.17645,-1.23859 -9.97656,-2.00977 -3.79678,-0.7705 -7.30645,-1.5305 -9.89844,-2.13086 -1.296,-0.30018 -2.36338,-0.56021 -3.11719,-0.76172 -0.26991,-0.0721 -0.44727,-0.1264 -0.63086,-0.18164 0.094,-0.0979 0.1492,-0.16524 0.2832,-0.29297 0.51968,-0.49533 1.32046,-1.19411 2.33399,-2.0371 2.02706,-1.68599 4.90412,-3.94873 8.13086,-6.37305 l 11.63086,-8.73828 10.60547,-0.5586 c 3.57554,-0.18799 6.42661,-0.45006 8.54882,-0.78906 2.12222,-0.339 3.49396,-0.6972 4.26172,-1.32226 0.14993,-0.12207 0.21952,-0.16732 0.3418,-0.26368 z M 45.333984,212.5918 c -0.450182,0.017 -0.974655,0.10899 -1.640625,0.24218 -1.847034,0.36941 -4.48834,1.72396 -7.642578,3.76563 -3.154238,2.04167 -6.790005,4.77832 -10.464843,7.91992 l -5.660157,4.83789 3.572266,3.6875 c 1.152531,1.18911 2.17171,2.07586 3.197265,2.63281 1.025556,0.55695 2.078147,0.76702 3.166016,0.56836 2.175739,-0.3973 4.414379,-2.26373 7.748047,-5.64453 3.483079,-3.53231 5.853602,-6.26676 7.371094,-8.625 1.517491,-2.35823 2.180948,-4.36427 2.183593,-6.35156 8.68e-4,-0.66616 -0.01097,-1.188 -0.08398,-1.62695 -0.07302,-0.43896 -0.221908,-0.8363 -0.550781,-1.09961 -0.328873,-0.26332 -0.74513,-0.3237 -1.195313,-0.30664 z m 0.03711,1 c 0.335969,-0.0127 0.47295,0.0396 0.533203,0.0879 0.06025,0.0482 0.135965,0.16087 0.189453,0.48242 0.05349,0.32155 0.07116,0.81197 0.07031,1.46289 -0.0024,1.76929 -0.572656,3.55598 -2.023437,5.81055 -1.450781,2.25456 -3.78315,4.95297 -7.244141,8.46289 -3.301622,3.34829 -5.48771,5.04789 -7.214843,5.36328 -0.863567,0.15769 -1.63258,0.0124 -2.507813,-0.46289 -0.875233,-0.47532 -1.837782,-1.2964 -2.957031,-2.45117 l -2.832031,-2.92188 4.851562,-4.14648 c 3.645101,-3.11619 7.251055,-5.82916 10.357422,-7.83985 3.106367,-2.01068 5.744216,-3.3129 7.294922,-3.62304 0.65161,-0.13033 1.146452,-0.21188 1.482422,-0.22461 z m 50.876953,8.22461 c -0.0682,0.004 -0.117189,0.0137 -0.171875,0.0254 -0.109373,0.0233 -0.232898,0.0585 -0.384766,0.10547 -0.303736,0.0939 -0.713717,0.23505 -1.210937,0.41796 -0.994442,0.36584 -2.332931,0.89282 -3.783203,1.49415 -2.941652,1.2197 -7.973014,4.53921 -12.339844,7.8164 -2.183415,1.6386 -4.189147,3.26339 -5.66211,4.60938 -0.736481,0.67299 -1.340397,1.27371 -1.773437,1.78711 -0.21652,0.25669 -0.391018,0.4915 -0.521484,0.71484 -0.130467,0.22334 -0.232422,0.43052 -0.232422,0.70898 0,0.54939 0.285287,1.03517 0.685547,1.59766 0.400259,0.56249 0.946634,1.17653 1.585937,1.79687 1.278606,1.2407 2.919373,2.50567 4.466797,3.33008 0.675612,0.35995 1.319178,0.6129 2.027344,0.61914 0.708166,0.006 1.434356,-0.24186 2.261718,-0.7539 1.654725,-1.02409 3.817039,-3.11926 7.564454,-6.92578 2.6388,-2.68042 4.255991,-4.47652 5.328125,-6.16993 1.072134,-1.6934 1.575885,-3.27589 1.974609,-5.41015 0.257224,-1.37685 0.471657,-2.64762 0.609375,-3.59375 0.06886,-0.47307 0.117254,-0.8643 0.144531,-1.1543 0.01364,-0.145 0.02238,-0.2633 0.02344,-0.36719 5.29e-4,-0.0519 -4.25e-4,-0.0996 -0.0078,-0.16015 -0.0074,-0.0605 0.04847,-0.13122 -0.15625,-0.33594 -0.127795,-0.12781 -0.230623,-0.137 -0.292969,-0.14648 -0.06235,-0.009 -0.100664,-0.008 -0.134765,-0.006 z m -0.455078,1.15234 c -0.02701,0.24393 -0.05797,0.5065 -0.111328,0.87305 -0.134877,0.92661 -0.346407,2.18891 -0.601563,3.55468 -0.387656,2.07502 -0.836899,3.48065 -1.835937,5.0586 -0.999039,1.57795 -2.572236,3.33747 -5.197266,6.0039 -3.740131,3.79913 -5.917816,5.87431 -7.376953,6.77735 -0.729569,0.45152 -1.253138,0.60771 -1.728516,0.60351 -0.475378,-0.004 -0.949885,-0.17453 -1.564453,-0.50195 -1.429636,-0.76166 -3.026016,-1.9878 -4.240234,-3.16601 -0.60711,-0.58911 -1.120267,-1.16652 -1.46875,-1.65626 -0.348484,-0.48973 -0.5,-0.91756 -0.5,-1.01953 0,0.041 0.01006,-0.0585 0.0957,-0.20507 0.08565,-0.14662 0.231045,-0.34567 0.423828,-0.57422 0.385565,-0.45711 0.964298,-1.03786 1.681641,-1.69336 1.434685,-1.31101 3.423101,-2.92226 5.58789,-4.54688 4.329578,-3.24924 9.408619,-6.56786 12.123047,-7.69336 1.439878,-0.59702 2.7686,-1.11963 3.744141,-1.47851 0.406682,-0.14961 0.706772,-0.25082 0.96875,-0.33594 z m 42.357421,2.64453 c -0.48926,0.0349 -1.07775,0.14042 -1.83008,0.28906 -1.98072,0.39135 -4.71092,1.77775 -7.91601,3.875 -3.20509,2.09726 -6.85836,4.91034 -10.55274,8.17188 -2.28843,2.0203 -3.5212,3.13491 -4.08008,4.125 -0.27943,0.49504 -0.36897,1.01436 -0.24218,1.48437 0.12678,0.47001 0.41337,0.85637 0.76758,1.28516 0.90247,1.0925 2.90911,2.70069 4.60937,3.74023 0.8339,0.50985 1.64695,0.9727 2.29492,1.31055 0.32399,0.16893 0.60599,0.30647 0.83594,0.40625 0.11497,0.0499 0.21727,0.0897 0.3125,0.1211 0.0952,0.0314 0.16311,0.0635 0.32617,0.0605 h 0.002 c 0.25153,-0.005 0.2639,-0.0668 0.33008,-0.10547 0.0662,-0.0386 0.13021,-0.0818 0.20313,-0.13476 0.14582,-0.10598 0.32542,-0.24916 0.54492,-0.43164 0.439,-0.36497 1.03183,-0.88444 1.74023,-1.52344 1.41681,-1.278 3.29621,-3.03321 5.30274,-4.96484 3.69867,-3.56061 6.0274,-6.08404 7.45117,-8.34766 1.42377,-2.26362 1.91797,-4.28415 1.91797,-6.66406 0,-0.59758 -0.0127,-1.07075 -0.0996,-1.48047 -0.0869,-0.40972 -0.28821,-0.79995 -0.65039,-1.01367 -0.36218,-0.21372 -0.77831,-0.23802 -1.26758,-0.20313 z m 48.22461,0.53516 c -0.39027,-0.15391 -0.78401,-0.0971 -1.26953,0.0156 -0.48552,0.11275 -1.07816,0.30763 -1.84766,0.56836 -3.1968,1.0832 -8.84411,4.69081 -13.79297,8.36133 -2.47443,1.83526 -4.75857,3.68291 -6.4375,5.23828 -0.83946,0.77769 -1.5269,1.4806 -2.01953,2.08789 -0.49263,0.60729 -0.83984,1.06847 -0.83984,1.6582 0,0.43364 0.20344,0.61353 0.43555,0.90235 0.2321,0.28881 0.54611,0.61594 0.92968,0.97851 0.76714,0.72516 1.80767,1.58289 2.95508,2.41407 1.23103,0.89175 2.18068,1.57354 3.10547,1.96679 0.92479,0.39326 1.85898,0.46098 2.82813,0.0937 1.93828,-0.73444 4.06997,-2.94693 8.29882,-7.26171 3.13007,-3.19367 5.23193,-5.70179 6.56446,-8.00196 1.33252,-2.30016 1.88281,-4.40526 1.88281,-6.68359 0,-0.56874 -0.006,-1.01139 -0.0879,-1.39844 -0.0823,-0.38705 -0.31481,-0.78554 -0.70508,-0.93945 z m -48.1543,0.46289 c 0.40019,-0.0285 0.61063,0.021 0.6875,0.0664 0.0769,0.0454 0.1279,0.0986 0.1836,0.36133 0.0557,0.2627 0.0762,0.6925 0.0762,1.27149 0,2.24753 -0.42415,4.00117 -1.76367,6.13086 -1.33953,2.12968 -3.61963,4.61829 -7.29883,8.16015 -1.99992,1.92527 -3.87424,3.67596 -5.2793,4.94336 -0.70253,0.6337 -1.28863,1.14664 -1.70898,1.4961 -0.21018,0.17473 -0.38011,0.3097 -0.49414,0.39257 -0.0106,0.008 -0.0119,0.009 -0.0215,0.0156 -0.0476,-0.0175 -0.0948,-0.0355 -0.16601,-0.0664 -0.19427,-0.0843 -0.4611,-0.21316 -0.77149,-0.375 -0.62078,-0.32367 -1.42022,-0.77642 -2.23633,-1.27539 -1.59973,-0.97808 -3.6293,-2.63923 -4.36132,-3.52539 -0.32661,-0.39537 -0.51377,-0.69133 -0.57227,-0.9082 -0.0585,-0.21688 -0.0462,-0.38952 0.14844,-0.73438 0.38932,-0.68971 1.58871,-1.85199 3.86914,-3.86523 3.66299,-3.23382 7.28795,-6.02247 10.4414,-8.08594 3.15346,-2.06347 5.86101,-3.39468 7.56055,-3.73047 0.74143,-0.14649 1.30684,-0.24294 1.70703,-0.27148 z m 47.78711,0.46679 c 0.039,0.0154 0.0456,-0.008 0.0937,0.21876 0.0481,0.22626 0.0664,0.63439 0.0664,1.18945 0,2.12143 -0.48674,4.00441 -1.74805,6.18164 -1.26131,2.17723 -3.3108,4.63642 -6.41406,7.80273 -4.22704,4.31294 -6.42799,6.45537 -7.9375,7.02735 -0.75476,0.28599 -1.32263,0.24563 -2.08398,-0.0781 -0.76136,-0.32375 -1.68329,-0.96868 -2.91016,-1.85742 -1.11541,-0.808 -2.1312,-1.64545 -2.85547,-2.33008 -0.36213,-0.34231 -0.6502,-0.64778 -0.83594,-0.8789 -0.18574,-0.23112 -0.21484,-0.45913 -0.21484,-0.2754 0,-0.0227 0.17251,-0.48157 0.61523,-1.02734 0.44272,-0.54576 1.10555,-1.22827 1.92383,-1.98633 1.63656,-1.51611 3.90055,-3.34668 6.35352,-5.16601 4.90592,-3.63868 10.6335,-7.24151 13.51757,-8.21875 0.76326,-0.25862 1.34267,-0.44552 1.75391,-0.54102 0.41125,-0.0955 0.63674,-0.0759 0.67578,-0.0605 z"
     id="path825"
     inkscape:connector-curvature="0" />
</svg>
