<?xml version="1.0" encoding="UTF-8" standalone="no"?>
<!-- Created with Inkscape (http://www.inkscape.org/) -->

<svg
   xmlns:dc="http://purl.org/dc/elements/1.1/"
   xmlns:cc="http://creativecommons.org/ns#"
   xmlns:rdf="http://www.w3.org/1999/02/22-rdf-syntax-ns#"
   xmlns:svg="http://www.w3.org/2000/svg"
   xmlns="http://www.w3.org/2000/svg"
   xmlns:sodipodi="http://sodipodi.sourceforge.net/DTD/sodipodi-0.dtd"
   xmlns:inkscape="http://www.inkscape.org/namespaces/inkscape"
   width="349.59894"
   height="250.18195"
   version="1.1"
   viewBox="0 0 349.59895 250.18194"
   id="svg13"
   sodipodi:docname="feast_ico2.svg"
   inkscape:version="0.92.3 (2405546, 2018-03-11)">
  <sodipodi:namedview
     pagecolor="#ffffff"
     bordercolor="#666666"
     borderopacity="1"
     objecttolerance="10"
     gridtolerance="10"
     guidetolerance="10"
     inkscape:pageopacity="0"
     inkscape:pageshadow="2"
     inkscape:window-width="1865"
     inkscape:window-height="1025"
     id="namedview15"
     showgrid="false"
     inkscape:zoom="2.4857804"
     inkscape:cx="153.96616"
     inkscape:cy="118.94794"
     inkscape:window-x="55"
     inkscape:window-y="27"
     inkscape:window-maximized="1"
     inkscape:current-layer="svg13"
     fit-margin-top="0"
     fit-margin-left="0"
     fit-margin-right="0"
     fit-margin-bottom="0" />
  <metadata
     id="metadata2">
    <rdf:RDF>
      <cc:Work
         rdf:about="">
        <dc:format>image/svg+xml</dc:format>
        <dc:type
           rdf:resource="http://purl.org/dc/dcmitype/StillImage" />
        <dc:title />
      </cc:Work>
    </rdf:RDF>
  </metadata>
  <defs
     id="defs7">
    <clipPath
       id="clipPath819">
      <circle
         cx="250.08"
         cy="267.73999"
         r="189.78999"
         id="circle4"
         style="fill:none;stroke:#ffffff;stroke-width:2.49040008" />
    </clipPath>
  </defs>
  <path
     style="fill:#000000"
     d="m 164.78187,247.96778 c -2.26282,-1.63918 -4.11422,-3.38926 -4.11422,-3.88907 0,-2.44969 16.66913,-14.81301 22.75,-16.87345 3.0655,-1.0387 3.25,-0.96594 3.25,1.28166 0,4.39976 -2.07101,7.97467 -8.30433,14.33465 -8.45589,8.62772 -8.66565,8.7072 -13.58145,5.14621 z m -45.61422,0.19054 c -1.65,-1.00881 -3.66866,-2.64365 -4.48591,-3.63298 -1.36162,-1.64832 -1.06886,-2.16697 3.5,-6.20052 7.35737,-6.49536 14.55564,-11.20556 18.23591,-11.93269 2.98751,-0.59027 3.25,-0.43537 3.25,1.91777 0,4.62745 -1.83766,7.5491 -9.21554,14.65157 -4.00645,3.8569 -7.50946,7.0167 -7.78446,7.0218 -0.275,0.005 -1.85,-0.81614 -3.5,-1.82495 z m -42.02582,-2.37968 c -2.97706,-1.58608 -6.47418,-4.97952 -6.47418,-6.28223 0,-1.89954 14.564776,-12.83004 20.220856,-15.17524 2.89015,-1.19835 5.33565,-2.098 5.43443,-1.99921 0.0988,0.0988 -0.2396,2.42357 -0.75198,5.16619 -0.78638,4.20928 -1.90362,5.97393 -7.16745,11.32078 -7.487546,7.60564 -8.681316,8.34444 -11.261676,6.96971 z m -53.28417,-13.0826 -3.20232,-3.30396 5.25615,-4.49347 c 7.31994,-6.25779 14.48231,-10.89384 17.88005,-11.57339 2.63516,-0.52703 2.8758,-0.33437 2.87237,2.29978 -0.005,3.75658 -2.46701,7.58277 -9.41108,14.625 -6.63529,6.72909 -8.85161,7.1338 -13.39517,2.44604 z m 166.42572,-9.97387 c 1.02664,-1.83451 7.05422,-6.50738 33.11921,-25.67561 10.02922,-7.3755 18.03533,-13.60962 17.79136,-13.8536 -0.46869,-0.46869 -4.2475,2.24229 -32.86892,23.58066 -11.00134,8.20193 -18.47809,13.12952 -19.5,12.85156 -1.62859,-0.44298 -7.01476,-1.3722 -22.41923,-3.86775 L 158.64396,214.5 175.4058,201.80102 c 13.38857,-10.14334 17.62407,-12.8367 21.0462,-13.3833 3.93481,-0.62849 4.16028,-0.82142 2.76366,-2.36467 -1.2119,-1.33914 -1.26964,-1.94665 -0.28436,-2.9917 0.99106,-1.05118 0.93875,-1.22412 -0.26365,-0.87166 -0.825,0.24183 -1.94597,1.42719 -2.49106,2.63412 -0.54508,1.20694 -1.78709,2.44708 -2.76004,2.75588 -0.97294,0.3088 -9.07696,6.08816 -18.00894,12.84302 -15.82834,11.97027 -25.21256,17.92064 -24.18086,15.33265 0.51669,-1.29608 23.87427,-18.93536 35.20318,-26.58488 3.5266,-2.38124 6.15867,-4.58287 5.84903,-4.8925 -0.30964,-0.30964 -1.24885,0.006 -2.08714,0.70196 -0.8383,0.69572 -1.52417,1.01549 -1.52417,0.7106 0,-0.30489 1.4625,-1.57991 3.25,-2.83338 2.15512,-1.51125 2.78764,-1.70263 1.87756,-0.56809 -2.29869,2.86561 0.27985,1.9169 5.19236,-1.9104 2.55648,-1.99173 4.40695,-4.01158 4.11217,-4.48855 -0.29478,-0.47697 0.18832,-0.58927 1.07357,-0.24958 1.3092,0.50239 0.99235,1.14575 -1.69806,3.44791 -3.22155,2.75664 -3.08462,4.15525 0.16267,1.66155 0.89526,-0.6875 0.56714,-0.23668 -0.72915,1.00183 -1.29629,1.2385 -2.11595,2.64169 -1.82145,3.11819 1.69383,2.74069 20.82916,1.58135 36.8045,-2.22985 3.14829,-0.75108 5.48423,-0.97738 5.19098,-0.50288 -0.99381,1.60802 1.94375,0.87374 4.0204,-1.00494 1.13545,-1.02721 3.41445,-2.70694 5.06445,-3.73274 6.34692,-3.94585 0.28674,1.59961 -11.39818,10.43006 -28.22093,21.32696 -42.47038,32.44814 -40.80392,31.84599 1.44738,-0.523 44.16008,-32.74492 57.47737,-43.36022 2.25683,-1.79893 3.07914,-2.09961 2.64451,-0.96699 -0.53197,1.3863 -0.10522,1.55181 2.72473,1.05671 14.46899,-2.53129 42.88391,-15.96202 55.19017,-26.08644 1.55907,-1.28265 3.30793,-2.03961 3.88635,-1.68212 0.69639,0.43039 0.86145,5.07771 0.48859,13.75668 -0.58888,13.70707 -2.78246,23.89444 -6.88152,31.95898 -6.27543,12.34634 -18.4486,22.56175 -31.94105,26.80407 -6.91299,2.1736 -8.92721,2.31705 -31.38705,2.23532 -13.2,-0.048 -29.4,-0.66032 -36,-1.36063 -19.39383,-2.05785 -19.65736,-2.05516 -22.8716,0.23358 -2.20572,1.57061 -2.69822,1.68258 -2.01267,0.45757 z m -54.93607,-11.72488 c -7.60119,-1.54255 -14.05252,-3.03682 -14.3363,-3.32059 -0.28377,-0.28378 4.77292,-4.48963 11.23711,-9.34633 l 11.75306,-8.83037 10.75864,-0.56565 c 7.13001,-0.37487 11.35287,-1.04942 12.52047,-2 1.56431,-1.27355 1.6905,-1.2439 1.12562,0.26446 -0.41839,1.1172 -0.0545,1.85664 1.06277,2.15982 2.48241,0.67359 12.69806,0.0579 14.3137,-0.86272 3.35566,-1.91204 -1.60047,2.02362 -16.87037,13.39676 -8.94061,6.65903 -16.59061,12.06277 -17,12.0083 -0.4094,-0.0545 -6.96351,-1.36112 -14.5647,-2.90368 z m -23.67966,-1.45101 c 0,-0.62228 28.6523,-22.29528 31.33957,-23.70568 1.18824,-0.62365 3.629,-2.40949 5.42393,-3.96855 1.79492,-1.55906 4.71992,-3.56126 6.5,-4.44935 l 3.2365,-1.61469 -2.88443,2.76111 c -2.731,2.61425 -2.78732,2.83212 -1.05887,4.096 1.00406,0.73418 2.97705,1.34177 4.38443,1.35019 1.40738,0.008 3.13414,0.38037 3.83725,0.82656 C 164.79612,186.33321 158.90869,188 151.2909,188 h -7.28264 l -11.25583,8.56756 c -12.59113,9.58394 -21.08478,14.8122 -21.08478,12.97872 z m -1.15275,-2.36486 c -0.36501,-0.94818 -15.155714,-4.2519 -30.30111,-6.7682 -8.48609,-1.4099 -10.42064,-1.9726 -9.46281,-2.75247 0.22917,-0.18659 5.36667,-4.08741 11.41667,-8.66848 6.049996,-4.58108 12.565406,-9.71592 14.478676,-11.41075 2.42234,-2.14578 2.87783,-2.35061 1.5,-0.67453 l -1.97868,2.40699 2.5,-0.6648 c 6.002434,-1.59619 7.126684,-1.52636 2.561414,0.15909 -2.716234,1.00281 -5.107624,2.33037 -5.314224,2.95015 -0.54556,1.63668 5.898254,2.69963 16.501614,2.72203 6.15157,0.013 9.2492,0.39489 9.25,1.14038 0.002,1.56712 11.45595,2.74134 13.91314,1.4263 6.29288,-3.36785 0.64232,2.05312 -11.91194,11.42794 -5.775,4.31245 -11.01874,8.23852 -11.65275,8.72461 -0.67063,0.51416 -1.29799,0.50652 -1.5,-0.0183 z M 308.73057,205.25 c 2.50807,-2.83009 3.03651,-3.67829 7.81543,-12.54456 3.90857,-7.25152 6.12166,-19.39006 6.12166,-33.57652 0,-13.04582 0.0278,-12.92691 -7.5123,-32.12892 -7.42728,-18.91468 -7.85114,-20.50975 -7.83917,-29.500004 0.0176,-13.24091 4.13115,-20.31038 14.83232,-25.49073 10.02385,-4.85246 23.78681,-0.73469 26.37081,7.88995 2.36574,7.89614 0.7306,18.66559 -3.80009,25.028364 -4.36349,6.12795 -13.05157,2.55832 -13.05157,-5.362444 0,-5.81667 -4.28105,-7.375 -8.54545,-3.11059 -3.35206,3.35205 -3.19669,7.404324 0.92936,24.238874 1.86115,7.59362 3.95274,17.98866 4.64797,23.1001 3.21204,23.61548 -2.94794,46.27228 -16.30111,59.95648 -4.55717,4.67015 -7.56877,5.90176 -3.66786,1.5 z M 59.66765,201.03518 c 0,-0.53065 0.96573,-1.48166 2.14607,-2.11335 1.18033,-0.6317 6.47619,-4.36003 11.76857,-8.28519 5.29238,-3.92515 10.739146,-7.90054 12.103926,-8.83419 1.36479,-0.93365 1.96782,-1.72115 1.34008,-1.75 -0.62774,-0.0289 -6.653176,4.0079 -13.389866,8.97055 -7.37125,5.4301 -12.88966,8.83162 -13.85865,8.54239 -0.88557,-0.26433 -5.60344,-1.46893 -10.48416,-2.67689 C 38.97819,192.33547 33.84285,188.9546 28.89426,181.45851 27.0939,178.73133 24.92107,174.25 24.06575,171.5 22.4385,166.26809 20.86059,145 22.09969,145 c 0.39339,0 3.00054,2.50045 5.79365,5.55657 7.95989,8.70938 22.81437,18.38712 29.44639,19.18441 2.60993,0.31376 4.00492,0.93716 3.72565,1.66493 -0.7953,2.07252 9.83851,4.96313 15.70299,4.26857 4.61229,-0.54626 4.98624,-0.45788 3.30046,0.78003 -1.81107,1.32991 -1.76033,1.44984 1.07048,2.53031 3.455706,1.31898 4.813436,0.79581 11.778336,-4.53849 2.6125,-2.00087 4.75,-3.40816 4.75,-3.12731 0,0.28085 -2.27115,2.17782 -5.047,4.21548 -2.77585,2.03766 -4.8131,3.93874 -4.52722,4.22462 0.28588,0.28588 2.10703,-0.66797 4.047,-2.11967 1.93997,-1.4517 5.21472,-3.80423 7.27722,-5.22784 l 3.750004,-2.5884 -3.413424,2.8384 c -1.87738,1.56111 -5.47738,4.67997 -8,6.9308 -7.45612,6.65277 -21.590296,17.19999 -26.666256,19.8989 -5.34356,2.8412 -5.42032,2.86306 -5.42032,1.54387 z M 39.4169,194.64779 c -8.01373,-2.73098 -10.78834,-5.12096 -15.2998,-13.17881 -5.35314,-9.56119 -6.67814,-17.20078 -6.54823,-37.75545 0.12325,-19.50021 -0.68353,-23.11882 -5.41941,-24.30745 -6.2479095,-1.56813 -10.1219895,2.44174 -6.9848395,7.22965 1.97873,3.01991 1.45042,3.94166 -1.38841,2.42237 -5.05195,-2.70372 -5.03175,-9.26206 0.0417,-13.53107 3.67391,-3.09138 4.9956,-3.13507 9.9864195,-0.33007 2.7445,1.5425 4.63853,3.70226 6.35796,7.25 2.31025,4.76679 2.38802,5.47791 1.37272,12.55304 -0.59195,4.125 -0.87268,13.35 -0.62385,20.5 0.39498,11.34927 0.8024,13.82537 3.20853,19.5 1.51585,3.575 4.32517,8.42564 6.24292,10.77921 3.31217,4.06486 11.53903,9.22079 14.7128,9.22079 0.81082,0 1.75234,0.45 2.09226,1 0.87745,1.41974 -0.13524,1.24307 -7.75075,-1.35221 z M 166.66765,184 c -0.90129,-0.58246 -1.02463,-0.97549 -0.30902,-0.98469 0.65504,-0.008 1.4691,0.43469 1.80902,0.98469 0.7673,1.24153 0.42112,1.24153 -1.5,0 z m -60.5,-0.65494 c -1.1,-0.23261 -3.07759,-0.65532 -4.39464,-0.93935 -2.816794,-0.60746 -1.898624,-1.70075 2.72561,-3.24543 3.26145,-1.08947 15.17568,-0.51415 15.16271,0.73218 -0.003,0.33415 -1.38995,1.39504 -3.08104,2.35754 -2.94478,1.67604 -6.0974,2.00759 -10.41264,1.09506 z m 38.08365,-0.45839 c 1.19309,-1.90027 2.41995,-11.3711 3.06192,-23.63667 0.41329,-7.8963 0.86002,-10.25 1.94545,-10.25 1.10913,0 1.40898,1.94382 1.40898,9.13398 0,11.57646 1.51035,17.20732 4.42919,16.51289 1.96318,-0.46707 1.97291,-0.43172 0.18722,0.68023 -1.03598,0.64509 -4.13805,2.9219 -6.89349,5.05957 -2.75544,2.13767 -4.61811,3.26267 -4.13927,2.5 z m 12.41635,-0.86906 c -1.27233,-0.80731 -1.12618,-1.29828 0.96288,-3.23469 2.42,-2.24317 2.43069,-2.24411 0.61388,-0.0538 -1.99748,2.40816 -1.67754,2.74328 3.42324,3.58563 2.21512,0.36581 2.15814,0.42663 -0.5,0.53373 -1.65,0.0665 -3.675,-0.30743 -4.5,-0.8309 z m -32.43571,-2.72448 c -0.54268,-1.4252 -0.42782,-1.54006 0.5598,-0.5598 0.68342,0.67834 0.99067,1.48524 0.68278,1.79313 -0.30789,0.30789 -0.86705,-0.24711 -1.24258,-1.23333 z m 119.43571,1.32931 c 0,-0.20765 0.7875,-0.99515 1.75,-1.75 1.58606,-1.24387 1.62143,-1.2085 0.37756,0.37756 -1.30637,1.66575 -2.12756,2.19548 -2.12756,1.37244 z m -38,-1.98625 c 0,-0.275 1.35,-1.46129 3,-2.63619 1.65,-1.1749 3,-1.91119 3,-1.63619 0,0.275 -1.35,1.46129 -3,2.63619 -1.65,1.1749 -3,1.91119 -3,1.63619 z m -87.73097,-1.32918 c 0.97297,-0.25354 2.32297,-0.23687 3,0.0371 0.67703,0.27393 -0.11903,0.48137 -1.76903,0.46099 -1.65,-0.0204 -2.20394,-0.2445 -1.23097,-0.49804 z m -10.01903,-0.99634 c 0.9625,-0.25152 2.5375,-0.25152 3.5,0 0.9625,0.25153 0.175,0.45733 -1.75,0.45733 -1.925,0 -2.7125,-0.2058 -1.75,-0.45733 z m -40.5,-2.47295 c -1.5125,-0.55241 -2.75,-1.41689 -2.75,-1.92105 0,-1.09626 7.67411,-1.09877 10.4777,-0.003 1.93287,0.75516 1.92869,0.7989 -0.18426,1.92972 -2.53434,1.35634 -3.8179,1.35544 -7.54344,-0.005 z m 33.25,0.78472 c 0,-0.20765 0.7875,-0.99515 1.75,-1.75 1.58606,-1.24387 1.62143,-1.2085 0.37756,0.37756 -1.30637,1.66575 -2.12756,2.19548 -2.12756,1.37244 z m -19,-2.62244 c -0.90129,-0.58246 -1.02463,-0.97549 -0.30902,-0.98469 0.65504,-0.008 1.4691,0.43469 1.80902,0.98469 0.767296,1.24153 0.42112,1.24153 -1.5,0 z m 23,-0.37756 c 0,-0.20765 0.7875,-0.99515 1.75,-1.75 1.58606,-1.24387 1.62143,-1.2085 0.37756,0.37756 -1.30637,1.66575 -2.12756,2.19548 -2.12756,1.37244 z m -28.1875,-1.30555 c 0.72187,-0.28887 1.58437,-0.25335 1.91667,0.0789 0.33229,0.33229 -0.25834,0.56864 -1.3125,0.52522 -1.16495,-0.048 -1.4019,-0.28494 -0.60417,-0.60416 z m 22.187496,0.30555 c 0,-0.20765 0.7875,-0.99515 1.750004,-1.75 1.58606,-1.24387 1.62143,-1.2085 0.37756,0.37756 -1.306374,1.66575 -2.127564,2.19548 -2.127564,1.37244 z M 63.91765,169.31067 c 0.9625,-0.25152 2.5375,-0.25152 3.5,0 0.9625,0.25153 0.175,0.45733 -1.75,0.45733 -1.925,0 -2.7125,-0.2058 -1.75,-0.45733 z m 7.5625,0.006 c 0.72187,-0.28887 1.58437,-0.25335 1.91667,0.0789 0.33229,0.33229 -0.25834,0.56864 -1.3125,0.52522 -1.16495,-0.048 -1.4019,-0.28494 -0.60417,-0.60416 z m 36.86516,-38.47039 C 109.626,91.035696 102.58875,57.076186 85.205506,19.18091 82.60212,13.50553 80.77975,8.55553 81.15581,8.18091 81.53187,7.80629 90.396916,7.5548 100.85593,7.62204 c 10.8951,0.07 18.43885,-0.24371 17.66405,-0.73469 -1.00541,-0.63711 -0.8235,-0.86087 0.70911,-0.87226 3.09655,-0.023 5.83536,3.06968 10.81705,12.21471 9.18231,16.8562 16.7735,39.072176 21.27763,62.269976 1.90316,9.80197 2.58305,48.373984 1.05734,59.986544 -0.50562,3.84846 -0.44197,5.63419 0.17823,5 1.38392,-1.41493 3.10831,-18.60531 3.10831,-30.98632 0,-20.442264 -3.99215,-45.078274 -10.53294,-65.000004 C 140.48433,35.33603 127.15664,8.11644 124.36644,7.08428 121.00039,5.8391 123.62691,5.24357 134.16765,4.862 c 8.70919,-0.31527 9.96678,-0.15662 9.74265,1.22913 -0.14155,0.87512 2.40957,7.17512 5.66914,14 7.23728,15.15338 13.16949,32.633806 16.64857,49.058326 3.57813,16.89209 4.5113,46.098234 1.9872,62.194804 -0.93347,5.95286 -1.4685,11.41939 -1.18896,12.14786 0.65147,1.6977 -2.10914,2.37842 -10.59204,2.61179 -3.68849,0.10148 -6.54159,0.45711 -6.34021,0.7903 0.20137,0.33318 -4.46394,0.68172 -10.36737,0.77453 l -10.7335,0.16874 0.0694,-22.66874 c 0.042,-13.70306 -0.45237,-26.426074 -1.2499,-32.168744 C 124.59865,69.857776 118.0419,44.682026 109.56049,22.91791 106.79668,15.82569 104.81668,9.5678 105.1605,9.01148 105.50433,8.45517 105.33563,8 104.78563,8 c -2.32287,0 -1.87456,2.40812 2.44871,13.15332 9.28188,23.069446 16.61043,52.040356 19.47708,76.995856 1.40437,12.225734 0.89426,48.312744 -0.70554,49.912544 -0.55696,0.55696 -4.89921,1.28693 -9.64943,1.62216 l -8.63678,0.60951 0.62559,-19.44689 z m 60.13656,12.63439 c -0.28551,-0.28551 0.1562,-3.99801 0.98159,-8.25 2.45881,-12.66663 2.14883,-45.830774 -0.56296,-60.230894 -3.90942,-20.7597 -9.64508,-38.384596 -18.61298,-57.195156 -5.14226,-10.78611 -5.38107,-11.77427 -2.86987,-11.87513 1.49338,-0.06 1.45672,-0.19388 -0.25,-0.91315 -1.16766,-0.49209 1.74553,-0.61436 7,-0.29381 4.95,0.30198 9.57335,1.002 10.2741,1.5556 2.28989,1.80901 12.04481,19.97853 16.71496,31.13326 9.00537,21.509506 12.82925,39.627286 12.89312,61.088386 0.045,15.133654 -1.25869,24.683954 -4.999,36.619534 -2.3386,7.46266 -2.46492,7.63228 -6.13547,8.23899 -4.57753,0.75663 -13.7217,0.83415 -14.43349,0.12237 z m 20.09537,-1.93972 c 1.20723,-1.55589 4.79113,-15.97388 6.15806,-24.77378 1.6668,-10.73041 0.65385,-35.605244 -1.93974,-47.633984 -4.12708,-19.14083 -11.17389,-36.991586 -22.22931,-56.310606 -2.81354,-4.91656 -4.8434,-9.21133 -4.51081,-9.54392 0.96497,-0.96497 15.36858,-1.89852 17.33079,-1.12327 2.87732,1.1368 11.06877,0.99947 9.28142,-0.15561 -1.07788,-0.69658 -0.0929,-0.96937 3.5,-0.96937 3.59295,0 4.57788,0.27279 3.5,0.96937 -0.89341,0.57736 -1.02018,0.97557 -0.3135,0.98469 0.65258,0.008 3.64161,3.72781 6.6423,8.26531 26.0364,39.371086 29.74576,81.257606 10.64135,120.16364 -2.13725,4.35251 -3.64642,8.30116 -3.3537,8.77478 0.29272,0.47362 0.16126,0.76657 -0.29212,0.651 -0.45338,-0.11558 -4.11348,0.14662 -8.13356,0.58266 -4.02007,0.43604 -7.51529,0.58673 -7.76716,0.33486 -0.25186,-0.25186 1.30423,-4.91271 3.458,-10.35743 6.13424,-15.50743 8.36513,-27.27707 8.41574,-44.399514 0.0742,-25.10925 -6.38211,-48.843666 -19.85775,-72.999996 -2.60796,-4.675 -4.74876,-9.0625 -4.75734,-9.75 -0.009,-0.6875 -0.61559,-1.25 -1.34893,-1.25 -1.91348,0 -1.73204,0.58202 2.1983,7.05207 21.65755,35.652166 28.17567,79.113836 16.90545,112.72246 -1.34168,4.001 -3.76474,10.19748 -5.38459,13.76998 -2.73836,6.03931 -3.15603,6.47937 -5.94796,6.26663 -1.90896,-0.14546 -2.70851,-0.60807 -2.19494,-1.26997 z m 26.09041,-1.56591 c 0,-0.56373 1.60231,-4.20674 3.5607,-8.09557 7.89522,-15.67781 11.77652,-32.446654 11.77652,-50.879474 0,-24.41841 -6.85996,-46.109546 -21.99485,-69.547516 -3.2133,-4.97613 -5.95487,-9.58863 -6.09237,-10.25 C 201.73883,0.34235 204.03044,0 209.96676,0 h 8.29911 l 1.40387,3.75 c 0.77213,2.0625 1.31253,4.0875 1.20089,4.5 -0.11164,0.4125 0.24054,0.75 0.78262,0.75 1.10781,0 5.66513,8.6827 10.57771,20.15284 3.53357,8.25035 7.17285,20.305116 7.99989,26.498876 2.5682,19.23328 2.66195,21.15929 1.53756,31.58505 -1.42266,13.191444 -4.89119,25.713544 -10.04465,36.263234 -4.61104,9.43931 -9.73223,16.8182 -11.08997,15.97907 -0.53138,-0.32841 -0.96614,-0.12055 -0.96614,0.46191 0,0.58246 -1.125,1.05902 -2.5,1.05902 -1.375,0 -2.5,-0.46123 -2.5,-1.02496 z"
     id="path825"
     inkscape:connector-curvature="0" />
</svg>
