<?xml version="1.0" encoding="UTF-8"?>
<!-- Created with Inkscape (http://www.inkscape.org/) -->
<svg width="963.3" height="963.3" version="1.1" viewBox="0 0 963.3 963.3" xmlns="http://www.w3.org/2000/svg" xmlns:cc="http://creativecommons.org/ns#" xmlns:dc="http://purl.org/dc/elements/1.1/" xmlns:rdf="http://www.w3.org/1999/02/22-rdf-syntax-ns#">
 <metadata>
  <rdf:RDF>
   <cc:Work rdf:about="">
    <dc:format>image/svg+xml</dc:format>
    <dc:type rdf:resource="http://purl.org/dc/dcmitype/StillImage"/>
    <dc:title/>
   </cc:Work>
  </rdf:RDF>
 </metadata>
 <circle cx="481.65" cy="481.65" r="480.18" fill="#050505" stroke="#000" stroke-opacity=".077922" stroke-width="2.9334"/>
 <path d="m858.65 585.15c-1.6848 5.8374-3.6573 10.731-5.5148 15.996-4.7303 13.407-10.212 26.132-15.763 38.742-5.5167 12.531-12.116 24.104-18.559 35.356-13.108 22.893-28.314 42.497-51.663 52.407l-37.262 7.9258-54.714 6.3665-67.288 3.33-49.735-0.62237-93.759 1.9009-112.48-2.4123-102.26-6.4887-30.669-4.8896-26.479-6.9203-23.042-9.7827-19.31-11.907-16.352-18.324-8.0041-11.632-10.356-20.743-4.7882-14.301-4.0731-23.244 0.82308-28.006c6.8225-21.505 17.837-41.213 29.25-60.75 7.877-10.249 12.589-22.607 16.5-35.5l-1.6474-12.03-4.8526-10.47-11.189-4.1976-11.311-2.8024-8.57 5.76-7.68 12.74-24.75 10.5-14.5-6.75-5.75-9.5 24.75-4.75 7-13-7.059-7.3717-11.441-1.1283-9.1046 2.5506-6.3954 4.9494-8.5 7-13.5-11-4-20.25 3.5-14c5 1.3333 2.0571-0.0548 12 3.75l11 3 20-5.5 28.5-17.5 22-13.5 22.599-4.581 18.901-7.919 24.25-15 11.281-11.598 10.719-23.652 0.5 13.5-2.25 19.75-12.5 24-0.25 3.5 11.86-0.90583 19.14-9.8442 11.75-13.75-3.75 21.25-6.75 15.75-8 10 13.352-1.6997 13.648-8.5503-1 15.75-4.5 12-14.25 22-16.75 22-13.75 22.25-9.932 16.403-10.068 18.847c-0.31591 2.619-2.1036 5.6356-2.6762 8.7172-0.78685 4.2345-0.38968 8.1478-0.82377 7.2828l3.8541 10.946 6.6459 6.5536 15 10.5 21.005 11.016 38.323 13.878 27.46 6.153 25.712 6.2038 60.027 7.42 73.723 4.58 4.75-93-25.925 7.5689-29.385 11.053-26.139 13.811-20.554 12.353-15.746 11.965-12.812-5.5914-12.319-6.3318-16.37-13.57-9.9985-13.007-6.6482-16.449-4.4564-21.684 0.60463-25.117 7.1725-37.727 19.827-56.773 88.75-184.25 91.5-54.75 4.25-64 2.6664-2.9946 6.8362-1.2224c12.575 2.0836 8.9798 6.7502 10.553 7.6946l-2.5251 46.924 112.41-67.326 1.2903 2.2019-18.701 27.739-12.988 20.751-8.7036 16.036-10.339 21.946-9.1446 29.969-3.0219 11.165-2.7422 15.073-1.92 14.315-1.1007 10.519-0.59827 20.338 0.50244 16.264 2.5931 22.883 6.0649 26.564 5.4128 19.13 7.3222 20.068 5.7744 14.218 12.118 25.97 16.917 29.819 17.249 25.758 14.866 20.585 24.654 31.06 17.703 20.306 1.0277 3.2045-35.883-5.941-49.559-7.7358-37.671-1.127-16.185-0.35949-22.935 1.0009-20.962 1.4434-20.805 3.1003-6.1768 96.162 73.295-0.93267 53.915-3.8998 30.38-3.8746 65.16-11.293 40.728-9.4453 23.116-6.5203 19.906-6.7844 20.351-7.2938 12.899-8.9562 10.332-10.866 7.4177-20.884 6.5643-41.714 7.9357-10.036 8.9434-11.355 12.847-5.3074 16.459-3.838 17.53 0.88695 12.944 5.6588 10.025 5.7042 9.2559 12.165 3.6934 15.658-2.1287 10.486-5.025 10.261-5.0759 4.3382-9.5146 3.854-10.838 0.58408-9.1997-3.3245-6.2442-3.9634-1.9655-7.0591 0.90909-6.2653 6.2096-6.0831 7.2271-0.88332 6.3612 1.1736 1.9008-1.8906-0.31505-3.0513-3.2979-5.2576-4.383-3.2736-5.6726-2.4108-7.138-0.84436-4.7409 0.46308-4.2676 1.3232-6.6818 3.6766-3.8836 3.8499-2.4345 5.4735-1.6803 5.4266-0.57363 6.0198-0.48032 12.862 0.23423 17.191z" fill="#c2c2c2" stroke="#000" stroke-width="2.3"/>
</svg>
